<?xml version="1.0" standalone="no"?>
<!DOCTYPE svg PUBLIC "-//W3C//DTD SVG 20010904//EN"
 "http://www.w3.org/TR/2001/REC-SVG-20010904/DTD/svg10.dtd">
<svg version="1.0" xmlns="http://www.w3.org/2000/svg"
 width="650.000000pt" height="650.000000pt" viewBox="0 0 650.000000 650.000000"
 preserveAspectRatio="xMidYMid meet">
<metadata>
Created by potrace 1.11, written by Peter Selinger 2001-2013
</metadata>
<g transform="translate(0.000000,650.000000) scale(0.100000,-0.100000)"
fill="#000000" stroke="none">
<path d="M3543 6323 c10 -9 97 -12 97 -3 0 5 -23 9 -51 8 -28 0 -48 -2 -46 -5z"/>
<path d="M3035 6293 c-99 -8 -206 -15 -237 -16 -32 -1 -58 -5 -58 -8 0 -3 -26
-11 -57 -18 -32 -7 -99 -21 -149 -33 -50 -12 -97 -19 -105 -16 -24 9 -34 8
-34 -3 0 -7 -9 -15 -20 -20 -28 -11 -37 -11 -30 1 3 6 -1 7 -9 4 -9 -3 -13
-10 -10 -15 3 -6 -6 -7 -23 -4 -19 5 -24 4 -14 -3 11 -8 9 -11 -8 -17 -11 -3
-25 -3 -31 0 -5 3 -10 2 -10 -2 0 -14 -60 -33 -60 -20 0 7 -6 5 -13 -4 -7 -9
-37 -26 -67 -39 -214 -87 -391 -179 -570 -298 -87 -57 -199 -140 -235 -173
-11 -10 -48 -41 -82 -69 -56 -45 -63 -48 -73 -32 -11 16 -11 16 -6 -1 6 -20
-9 -57 -24 -57 -5 0 -16 7 -24 16 -12 12 -16 12 -17 2 -1 -7 -5 -2 -9 12 -8
25 -8 25 -9 2 -1 -21 -5 -23 -31 -17 -22 5 -30 3 -30 -7 0 -9 10 -13 28 -12
15 1 27 3 27 4 0 1 8 3 18 5 9 2 17 -1 17 -6 0 -6 5 -7 10 -4 26 16 5 -12 -47
-63 -32 -32 -77 -79 -101 -105 -23 -26 -47 -45 -52 -42 -5 3 -7 0 -4 -8 3 -8
1 -18 -5 -22 -6 -3 -11 -1 -11 5 0 6 -5 8 -11 4 -8 -4 -7 -9 2 -14 9 -6 3 -19
-23 -48 -20 -22 -39 -37 -43 -34 -3 4 -3 0 0 -9 3 -9 -7 -26 -25 -44 -16 -16
-30 -34 -30 -41 0 -7 -4 -14 -9 -16 -8 -3 -125 -178 -135 -202 -3 -7 -9 -5
-16 4 -9 12 -10 10 -8 -10 2 -15 -21 -71 -57 -140 -188 -364 -284 -679 -331
-1085 -20 -174 -14 -571 11 -735 13 -86 53 -285 70 -350 39 -147 113 -352 126
-345 4 3 5 -3 2 -13 -5 -21 35 -105 47 -97 4 2 5 -7 2 -22 -4 -22 -2 -25 14
-19 10 4 15 4 11 0 -4 -4 -2 -13 5 -21 6 -7 9 -16 6 -19 -3 -2 8 -19 23 -35
16 -17 29 -37 29 -44 0 -8 4 -16 9 -19 16 -10 -6 70 -43 154 -202 455 -293
960 -257 1425 45 568 239 1095 564 1535 530 718 1332 1157 2241 1230 748 59
1522 -178 2116 -650 149 -118 409 -382 517 -526 281 -371 455 -758 548 -1217
44 -218 59 -606 34 -861 -28 -293 -110 -609 -220 -854 -27 -62 -30 -75 -18
-84 11 -8 10 -9 -3 -4 -10 3 -18 2 -18 -2 0 -14 -140 -263 -196 -350 -31 -48
-49 -80 -41 -72 9 8 45 62 80 120 36 58 76 116 89 129 12 13 16 21 8 16 -10
-5 -12 -5 -5 2 12 13 65 26 65 17 0 -14 -135 -242 -197 -334 -35 -52 -53 -81
-38 -65 14 17 43 55 64 85 21 30 52 76 69 101 18 26 52 84 76 129 39 73 42 85
30 98 -13 13 -13 16 1 31 8 10 15 25 15 34 0 9 5 19 10 22 18 11 2 -46 -16
-59 -14 -11 -14 -14 -2 -18 10 -4 30 26 71 107 32 62 59 121 62 131 5 25 62
179 74 201 5 10 20 61 32 113 12 52 25 100 29 105 6 8 30 124 36 170 1 13 14
102 20 135 2 14 7 50 11 80 3 30 13 60 21 66 8 6 12 17 9 25 -4 10 -6 9 -6 -3
-1 -10 -6 -18 -12 -18 -7 0 -8 7 -4 18 17 39 10 438 -10 587 -5 40 -4 48 6 38
15 -15 29 -17 29 -5 0 5 -11 14 -24 20 -19 9 -24 20 -30 74 -25 217 -133 564
-257 824 -27 57 -49 107 -49 110 0 3 -7 12 -16 21 -8 9 -13 21 -10 28 3 8 -1
16 -9 18 -7 3 -25 32 -41 64 -15 32 -43 76 -61 99 -18 23 -33 44 -33 47 0 8
-40 65 -126 178 -88 115 -333 362 -463 466 -53 42 -103 83 -111 92 -8 9 -35
29 -60 45 -25 16 -54 37 -65 47 -11 10 -31 24 -45 31 -87 47 -240 141 -240
148 0 5 6 11 13 13 7 4 6 6 -5 6 -9 1 -18 -4 -20 -10 -2 -7 -40 7 -93 35 -48
25 -94 46 -100 46 -6 0 -22 10 -35 23 -14 12 -29 21 -34 19 -5 -2 -59 15 -120
37 -61 23 -120 42 -131 44 -11 2 -27 7 -35 10 -35 14 -291 76 -360 87 -41 7
-82 14 -90 17 -8 3 -28 6 -45 6 -16 0 -33 5 -37 11 -5 7 -8 7 -8 1 0 -11 -12
-11 -100 -2 -123 14 -335 14 -505 0z"/>
<path d="M3185 6079 c-14 -40 -35 -102 -35 -105 0 -2 4 -4 9 -4 11 0 45 109
37 118 -3 2 -8 -1 -11 -9z"/>
<path d="M1894 6058 c-5 -7 -2 -9 9 -5 9 3 18 1 21 -6 2 -7 5 -4 5 6 1 19 -24
23 -35 5z"/>
<path d="M1803 6018 c-2 -18 0 -20 7 -8 12 18 13 30 2 30 -4 0 -9 -10 -9 -22z"/>
<path d="M2990 5940 c0 -6 21 -23 46 -38 80 -47 76 -39 54 -112 -33 -107 -27
-112 61 -50 32 22 60 40 63 40 4 0 30 -16 59 -35 51 -34 87 -45 87 -25 0 6 -5
10 -11 10 -7 0 -32 15 -58 33 -73 52 -76 52 -142 2 -32 -25 -59 -41 -59 -37 0
5 10 37 21 72 l22 63 -24 19 c-39 29 -43 32 -76 51 -36 20 -43 21 -43 7z"/>
<path d="M3357 5914 c-49 -30 -71 -54 -51 -54 8 0 124 80 124 85 0 11 -19 3
-73 -31z"/>
<path d="M1430 5784 c0 -8 5 -12 10 -9 6 4 8 11 5 16 -9 14 -15 11 -15 -7z"/>
<path d="M1390 5755 c-14 -16 -10 -18 14 -9 9 3 16 10 16 15 0 14 -16 11 -30
-6z"/>
<path d="M4529 5743 c-6 -16 -12 -41 -15 -58 -4 -29 -4 -30 7 -5 6 14 12 32
14 40 2 8 6 23 10 33 4 9 4 17 1 17 -4 0 -11 -12 -17 -27z"/>
<path d="M1841 5662 c-23 -66 -25 -72 -13 -72 10 0 48 118 40 125 -3 3 -15
-21 -27 -53z"/>
<path d="M1318 5683 c7 -3 16 -2 19 1 4 3 -2 6 -13 5 -11 0 -14 -3 -6 -6z"/>
<path d="M1205 5650 c-3 -5 1 -10 10 -10 9 0 13 5 10 10 -3 6 -8 10 -10 10 -2
0 -7 -4 -10 -10z"/>
<path d="M1082 5620 c-20 -19 -27 -30 -17 -30 8 0 15 5 15 11 0 5 6 7 13 3 6
-4 9 -3 4 1 -4 5 0 17 10 27 25 27 12 21 -25 -12z"/>
<path d="M1222 5618 c-5 -7 -12 -24 -16 -38 -5 -22 -4 -22 7 3 8 16 20 33 28
38 8 5 9 9 3 9 -6 0 -16 -6 -22 -12z"/>
<path d="M4336 5618 c2 -7 31 -30 64 -50 l59 -37 -15 -48 c-27 -87 -28 -103
-10 -103 9 0 42 19 73 41 l55 41 60 -42 c40 -28 65 -39 76 -35 14 6 14 8 3 13
-8 2 -34 20 -59 39 -76 58 -73 58 -141 8 -34 -25 -61 -43 -61 -41 0 2 9 34 21
71 11 37 17 71 12 75 -9 9 -132 80 -139 80 -2 0 -1 -6 2 -12z"/>
<path d="M4720 5604 c-51 -36 -70 -53 -70 -63 0 -6 27 9 60 31 33 23 60 45 60
50 0 13 -13 9 -50 -18z"/>
<path d="M1145 5560 c-16 -17 -23 -30 -17 -30 7 0 12 5 12 11 0 6 7 8 17 5 10
-4 14 -4 10 0 -4 4 -2 13 5 21 22 28 1 22 -27 -7z"/>
<path d="M1660 5563 c0 -5 27 -25 60 -47 33 -21 60 -39 60 -41 0 -1 -9 -28
-20 -60 -37 -106 -24 -118 55 -55 28 22 56 40 64 40 7 0 36 -16 63 -36 27 -19
57 -34 65 -32 15 3 -84 80 -121 94 -10 4 -34 -10 -68 -40 -28 -25 -53 -44 -55
-42 -2 2 7 34 19 71 l23 67 -30 25 c-28 23 -98 63 -110 63 -3 0 -5 -3 -5 -7z"/>
<path d="M2017 5534 c-49 -30 -71 -54 -51 -54 8 0 124 80 124 85 0 11 -19 3
-73 -31z"/>
<path d="M3040 5560 c-35 -7 -35 -7 -5 -9 17 0 37 4 45 9 17 11 11 11 -40 0z"/>
<path d="M3128 5563 c17 -2 47 -2 65 0 17 2 3 4 -33 4 -36 0 -50 -2 -32 -4z"/>
<path d="M3308 5563 c6 -2 18 -2 25 0 6 3 1 5 -13 5 -14 0 -19 -2 -12 -5z"/>
<path d="M1067 5546 c-4 -10 -1 -13 9 -9 7 3 14 9 14 14 0 14 -17 10 -23 -5z"/>
<path d="M3433 5553 c15 -2 37 -2 50 0 12 2 0 4 -28 4 -27 0 -38 -2 -22 -4z"/>
<path d="M3529 5547 c5 -5 19 -7 32 -5 20 3 19 5 -9 9 -20 3 -29 2 -23 -4z"/>
<path d="M2888 5533 c7 -3 16 -2 19 1 4 3 -2 6 -13 5 -11 0 -14 -3 -6 -6z"/>
<path d="M3623 5533 c9 -2 23 -2 30 0 6 3 -1 5 -18 5 -16 0 -22 -2 -12 -5z"/>
<path d="M2808 5523 c7 -3 16 -2 19 1 4 3 -2 6 -13 5 -11 0 -14 -3 -6 -6z"/>
<path d="M3678 5523 c7 -3 16 -2 19 1 4 3 -2 6 -13 5 -11 0 -14 -3 -6 -6z"/>
<path d="M1019 5503 c-8 -9 -9 -14 -2 -10 7 4 13 0 15 -10 3 -13 6 -10 10 10
6 31 -3 35 -23 10z"/>
<path d="M1090 5510 c0 -5 5 -10 10 -10 6 0 10 5 10 10 0 6 -4 10 -10 10 -5 0
-10 -4 -10 -10z"/>
<path d="M3799 5495 c52 -14 99 -24 105 -22 14 5 -108 38 -159 43 -22 3 2 -7
54 -21z"/>
<path d="M941 5466 l-24 -31 28 27 c16 15 27 29 24 31 -2 3 -15 -10 -28 -27z"/>
<path d="M3945 5456 c46 -21 78 -30 71 -18 -3 5 -18 12 -33 15 -16 3 -37 8
-48 11 -11 4 -6 0 10 -8z"/>
<path d="M889 5413 c-8 -10 -21 -27 -29 -38 -13 -18 -13 -19 0 -9 8 6 23 14
34 18 16 5 17 3 11 -21 -6 -24 -5 -25 10 -13 11 9 14 22 10 39 -9 37 -19 44
-36 24z"/>
<path d="M970 5421 c0 -5 -10 -12 -22 -15 -22 -7 -22 -7 -3 -15 25 -10 55 -2
55 14 0 7 -7 15 -15 19 -8 3 -15 2 -15 -3z"/>
<path d="M1025 5417 c-5 -7 -11 -19 -13 -27 -1 -10 3 -8 13 5 9 11 18 19 20
18 3 -2 5 0 6 4 1 13 -16 13 -26 0z"/>
<path d="M2405 5415 l-30 -14 30 6 c17 3 34 10 40 14 14 13 -5 10 -40 -6z"/>
<path d="M4054 5421 c3 -4 32 -19 63 -31 326 -129 651 -351 868 -593 44 -50
87 -97 95 -106 43 -48 170 -231 170 -246 0 -3 18 -34 40 -70 183 -299 292
-676 306 -1060 6 -145 3 -191 -21 -375 -3 -20 -16 -89 -29 -155 -73 -358 -254
-727 -503 -1027 -75 -90 -267 -270 -374 -351 -165 -124 -381 -241 -574 -312
-55 -20 -111 -41 -125 -47 -33 -14 -196 -53 -289 -69 -41 -7 -69 -15 -62 -17
30 -10 273 48 421 100 180 64 276 109 446 210 205 122 436 318 578 491 44 53
84 93 89 90 6 -3 7 -1 3 5 -6 11 96 164 115 170 5 2 9 12 9 22 0 10 10 20 21
23 14 4 20 11 16 21 -3 8 0 17 7 19 7 3 23 27 36 54 188 394 274 785 256 1161
-10 199 -11 210 -41 347 -14 66 -30 140 -36 165 -9 45 -14 59 -84 239 -174
444 -486 826 -898 1098 -98 65 -325 187 -377 204 -14 4 -49 17 -78 29 -30 11
-51 16 -48 11z"/>
<path d="M967 5365 c-16 -12 -16 -13 2 -18 11 -3 22 1 25 9 7 19 -6 24 -27 9z"/>
<path d="M2840 5350 c6 -11 45 -40 88 -64 42 -25 117 -79 167 -121 76 -64 106
-82 195 -116 59 -23 128 -58 157 -81 80 -61 245 -238 377 -403 66 -83 157
-197 203 -254 46 -57 96 -124 110 -149 33 -57 104 -242 97 -253 -3 -5 -1 -9 4
-9 12 0 53 -76 46 -83 -3 -3 17 -42 45 -87 28 -45 51 -85 51 -89 0 -20 73 -95
150 -155 47 -35 96 -74 110 -86 53 -43 120 -96 145 -113 14 -10 22 -23 19 -29
-4 -6 -3 -8 3 -5 6 4 38 -16 71 -42 34 -27 71 -52 82 -56 11 -3 20 -12 20 -20
0 -7 10 -16 23 -19 12 -3 33 -15 47 -27 l25 -20 -35 7 c-19 4 -49 17 -66 30
-17 13 -36 24 -41 24 -6 0 -16 7 -23 15 -7 8 -20 15 -30 15 -10 0 -23 7 -30
15 -7 8 -25 15 -40 15 -33 0 -90 30 -90 47 0 7 7 10 18 7 14 -5 14 -4 2 4 -8
6 -18 8 -22 5 -5 -2 -15 0 -22 6 -7 6 -24 11 -37 10 -13 -1 -39 2 -58 6 -25 6
-32 5 -27 -3 4 -7 16 -12 26 -12 10 0 22 -5 26 -11 3 -6 17 -8 31 -5 29 8 51
-3 32 -15 -12 -7 -12 -9 0 -9 8 0 22 -6 30 -14 9 -8 36 -21 61 -30 123 -43
188 -74 211 -102 13 -16 12 -17 -6 -10 -11 5 -34 14 -51 20 -18 6 -38 17 -46
24 -8 6 -30 15 -49 18 -19 4 -45 12 -59 19 -14 7 -41 15 -60 19 -32 6 -33 5
-15 -8 11 -9 26 -16 33 -16 6 0 12 -5 12 -11 0 -6 6 -9 13 -6 16 6 95 -18 115
-36 10 -7 36 -19 59 -27 23 -7 40 -17 37 -22 -3 -5 -12 -7 -20 -4 -8 3 -14 1
-14 -4 0 -20 21 -19 60 1 l42 22 232 -117 c127 -64 234 -116 238 -116 14 0 28
77 39 210 13 149 6 486 -10 535 -9 27 -10 24 -9 -26 1 -30 -2 -61 -6 -67 -4
-7 -2 -12 3 -12 6 0 11 -16 11 -36 0 -34 -2 -36 -27 -31 l-28 5 28 -20 c38
-28 35 -46 -8 -45 -35 1 -54 -8 -42 -19 4 -4 13 -2 21 5 10 9 20 9 38 0 21 -9
25 -17 24 -52 -1 -28 -5 -41 -14 -40 -6 2 -12 -2 -12 -7 0 -6 6 -10 13 -10 10
0 13 -11 10 -42 -5 -45 -13 -61 -20 -40 -3 7 -19 20 -35 28 -24 12 -28 18 -17
25 10 6 7 9 -13 9 -14 0 -35 3 -45 7 -17 6 -17 6 0 -14 18 -20 18 -21 -5 -37
-29 -21 -5 -21 27 0 26 17 27 17 82 -34 19 -18 22 -26 13 -37 -8 -9 -8 -15 0
-20 6 -3 7 -11 3 -18 -4 -6 -7 -23 -8 -37 -4 -83 -5 -88 -27 -93 -12 -3 -26
-3 -32 1 -6 3 -15 7 -21 8 -5 1 -19 5 -30 10 -18 6 -17 4 4 -19 27 -30 22 -34
-17 -13 -15 8 -53 26 -84 40 -31 14 -60 31 -63 36 -4 6 12 1 34 -10 31 -17 44
-19 59 -11 15 8 31 7 62 -4 l42 -15 -32 30 c-18 17 -38 30 -46 30 -8 0 -14 5
-14 11 0 5 -8 9 -17 8 -46 -4 -61 14 -20 25 15 4 27 0 40 -15 10 -12 20 -19
23 -16 3 3 -5 18 -19 33 -24 26 -27 26 -58 14 -42 -18 -71 -20 -86 -8 -7 5
-16 7 -22 4 -16 -10 -67 5 -79 24 -9 14 -8 19 3 24 8 3 17 0 21 -6 4 -7 3 -8
-4 -4 -7 4 -12 3 -12 -3 0 -17 17 -22 43 -12 16 6 38 7 59 1 41 -12 74 -4 59
14 -18 21 1 27 23 9 19 -17 20 -17 7 -1 -8 11 -11 28 -6 45 5 21 4 25 -5 17
-12 -12 -99 -7 -114 7 -5 4 -15 1 -23 -7 -13 -13 -19 -12 -51 7 -36 21 -36 21
8 -19 25 -23 40 -41 34 -42 -7 0 -14 7 -18 15 -3 8 -15 15 -26 15 -11 0 -20 5
-20 10 0 6 -10 10 -23 10 -24 0 -47 17 -47 34 0 5 8 2 18 -7 10 -10 22 -17 27
-17 12 0 -26 40 -39 40 -20 1 -64 47 -68 71 -1 12 -10 25 -18 27 -12 4 -13 3
-2 -10 7 -9 10 -22 7 -30 -3 -8 3 -23 15 -33 22 -20 26 -35 10 -35 -5 0 -10 7
-10 15 0 10 -10 15 -26 15 -22 0 -24 2 -14 15 10 12 7 15 -17 21 -15 4 -42 17
-58 30 -17 12 -44 30 -60 38 -20 10 -24 16 -12 16 9 0 17 5 17 11 0 6 -8 8
-19 4 -10 -3 -24 1 -31 10 -11 13 -7 15 31 16 79 3 104 2 123 -6 14 -6 17 -5
12 3 -11 18 2 15 40 -9 39 -24 47 -10 8 16 -19 12 -43 16 -95 13 -38 -2 -69 0
-69 3 0 3 -19 14 -42 23 -31 12 -39 19 -30 25 10 6 5 10 -16 14 -16 3 -36 12
-44 19 -19 18 -48 36 -76 48 -13 6 -34 17 -45 26 -21 15 -21 15 13 9 19 -4 49
-19 67 -33 18 -13 33 -20 33 -15 0 19 -82 65 -127 72 -47 6 -62 24 -26 29 13
2 20 8 17 16 -3 8 -16 11 -32 9 -21 -4 -24 -2 -12 6 12 9 11 11 -8 11 -15 0
-43 20 -77 55 -30 30 -48 55 -40 55 8 0 15 -4 15 -10 0 -5 10 -10 23 -10 13 0
17 3 11 8 -6 4 -14 17 -18 30 -4 12 -11 20 -16 17 -15 -10 -39 7 -55 38 -19
39 -19 40 5 34 23 -6 27 11 5 19 -24 9 -18 31 10 36 26 5 51 -14 40 -31 -3 -7
0 -8 9 -5 19 7 19 14 1 37 -9 12 -20 17 -33 13 -36 -12 -72 47 -38 60 11 4 6
14 -20 40 -19 20 -32 40 -28 45 7 11 -13 39 -28 39 -6 0 -5 -7 2 -15 10 -12
10 -15 0 -15 -6 0 -14 9 -17 20 -3 11 -12 20 -20 20 -9 0 -13 6 -9 15 3 9 0
15 -9 15 -27 0 -44 51 -26 79 7 10 13 11 30 2 12 -7 19 -16 16 -22 -4 -5 -2
-9 4 -9 6 0 15 -10 22 -21 9 -17 8 -23 -2 -30 -10 -6 -10 -9 -2 -9 21 0 25 20
9 52 -19 36 -14 47 11 27 10 -7 5 1 -11 19 -16 17 -32 29 -36 27 -4 -3 -23 12
-43 33 -47 48 -64 62 -76 62 -6 0 -9 -6 -7 -12 1 -7 1 -10 -1 -5 -3 4 -13 7
-24 7 -10 0 -19 5 -19 11 0 6 9 8 20 4 11 -3 20 -4 20 -2 0 9 -38 47 -47 47
-6 0 -16 7 -23 15 -10 12 -10 15 4 15 10 0 0 15 -28 40 -24 22 -53 40 -64 40
-16 0 -20 4 -15 16 5 13 2 15 -14 10 -17 -5 -23 0 -37 34 -9 23 -21 38 -26 35
-6 -3 -15 6 -20 22 -24 65 -57 118 -82 132 -16 9 -28 19 -28 22 0 9 -56 69
-64 69 -14 0 -46 36 -46 53 0 19 -111 130 -120 120 -3 -3 1 -8 8 -10 6 -3 12
-9 12 -13 0 -14 -83 27 -101 49 -9 11 -19 17 -23 14 -3 -3 -14 1 -23 9 -10 9
-43 24 -73 34 -30 10 -61 25 -68 33 -10 14 -11 13 -6 -4 6 -17 5 -18 -7 -7 -8
7 -14 18 -14 24 0 5 -18 20 -40 32 -22 12 -52 33 -66 46 -29 27 -157 93 -202
104 -26 6 -27 5 -17 -14z m808 -508 c15 -15 31 -35 35 -45 3 -9 10 -17 16 -17
5 0 11 -9 14 -21 3 -11 15 -23 26 -26 12 -3 21 -9 21 -13 0 -19 -38 5 -65 42
-16 22 -42 52 -57 66 -26 24 -35 42 -23 42 2 0 17 -13 33 -28z m367 -432 c3
-5 1 -10 -4 -10 -6 0 -11 5 -11 10 0 6 2 10 4 10 3 0 8 -4 11 -10z m85 -100
c0 -5 -2 -10 -4 -10 -3 0 -8 5 -11 10 -3 6 -1 10 4 10 6 0 11 -4 11 -10z m25
-20 c3 -5 1 -10 -4 -10 -6 0 -11 5 -11 10 0 6 2 10 4 10 3 0 8 -4 11 -10z m45
-11 c0 -5 -4 -7 -10 -4 -5 3 -10 1 -10 -4 0 -6 -5 -11 -11 -11 -8 0 -8 5 1 15
14 17 30 20 30 4z m120 -249 c0 -5 -2 -10 -4 -10 -3 0 -8 5 -11 10 -3 6 -1 10
4 10 6 0 11 -4 11 -10z m285 -520 c3 -5 2 -10 -4 -10 -5 0 -13 5 -16 10 -3 6
-2 10 4 10 5 0 13 -4 16 -10z m126 -72 c20 -22 26 -34 18 -37 -7 -2 -15 2 -17
9 -3 7 -13 21 -23 31 -19 19 -24 29 -14 29 3 0 19 -15 36 -32z m259 -238 c0
-5 -2 -10 -4 -10 -3 0 -8 5 -11 10 -3 6 -1 10 4 10 6 0 11 -4 11 -10z m65 -58
c-3 -3 -11 0 -18 7 -9 10 -8 11 6 5 10 -3 15 -9 12 -12z m207 -28 c13 -1 27
-3 31 -3 5 -1 6 -5 3 -9 -3 -5 -22 -6 -43 -3 -31 5 -39 11 -41 31 -2 24 -2 24
13 6 8 -11 25 -20 37 -22z m121 -134 c15 -14 -10 -20 -37 -10 -35 13 -34 32 2
24 15 -4 31 -10 35 -14z m157 -100 c-11 -20 -40 -28 -40 -10 0 5 7 7 15 3 9
-3 15 -2 14 3 -3 16 1 24 11 24 7 0 7 -6 0 -20z"/>
<path d="M3175 5336 c14 -21 21 -23 45 -16 16 5 39 6 52 3 22 -4 22 -4 5 10
-12 10 -30 14 -52 10 -19 -3 -35 -1 -39 6 -4 6 -12 11 -17 11 -5 0 -2 -11 6
-24z"/>
<path d="M854 5338 c-5 -7 -2 -8 6 -3 10 6 12 4 7 -8 -3 -8 0 -17 7 -20 6 -3
13 3 13 13 2 21 -23 34 -33 18z"/>
<path d="M921 5336 c-7 -8 -8 -17 -3 -20 6 -3 13 1 16 10 9 23 2 28 -13 10z"/>
<path d="M2207 5334 c-16 -9 -27 -17 -25 -20 5 -5 68 25 68 32 0 7 -15 3 -43
-12z"/>
<path d="M3130 5320 c0 -15 21 -23 32 -12 6 6 2 11 -11 15 -12 3 -21 1 -21 -3z"/>
<path d="M2145 5300 c-3 -6 1 -7 9 -4 18 7 21 14 7 14 -6 0 -13 -4 -16 -10z"/>
<path d="M776 5281 c-14 -15 -14 -18 -1 -18 8 0 12 4 9 8 -2 4 0 10 6 14 16
10 24 -23 10 -40 -10 -12 -10 -18 1 -32 13 -15 12 -15 -8 -4 -13 6 -23 8 -23
3 0 -13 44 -24 48 -12 2 6 8 8 13 4 5 -3 9 2 9 11 0 8 7 18 15 21 8 3 17 14
20 25 4 11 11 17 16 13 5 -3 6 -11 3 -17 -4 -8 -2 -7 7 1 12 11 12 14 -1 22
-18 11 -50 -6 -50 -28 -1 -15 -2 -15 -15 2 -8 10 -12 22 -10 26 10 17 -35 17
-49 1z m54 -45 c0 -3 -4 -8 -10 -11 -5 -3 -10 -1 -10 4 0 6 5 11 10 11 6 0 10
-2 10 -4z"/>
<path d="M3232 5284 c10 -10 20 -15 24 -12 3 4 -5 12 -18 18 -22 12 -22 12 -6
-6z"/>
<path d="M2094 5274 c-18 -14 -18 -14 6 -3 31 14 36 19 24 19 -6 0 -19 -7 -30
-16z"/>
<path d="M3147 5264 c-8 -8 1 -24 14 -24 5 0 9 7 9 15 0 15 -12 20 -23 9z"/>
<path d="M3208 5258 c5 -5 16 -8 23 -6 8 3 3 7 -10 11 -17 4 -21 3 -13 -5z"/>
<path d="M2000 5222 c-227 -133 -405 -285 -577 -494 -59 -72 -118 -141 -130
-152 -13 -11 -23 -26 -23 -33 0 -7 -18 -42 -39 -76 -50 -80 -151 -280 -144
-287 8 -8 34 32 40 63 3 15 14 33 23 40 21 15 66 109 62 130 -1 4 4 7 11 7 13
1 47 62 47 85 0 8 4 15 9 15 5 0 20 17 32 38 12 20 39 56 58 79 20 23 54 65
76 94 97 128 377 382 473 427 17 9 32 19 32 24 0 4 4 8 9 8 10 0 111 61 111
66 0 7 -4 5 -70 -34z"/>
<path d="M747 5213 c-4 -3 -7 -11 -7 -17 0 -6 5 -5 12 2 6 6 9 14 7 17 -3 3
-9 2 -12 -2z"/>
<path d="M756 5181 c-4 -7 -5 -15 -2 -18 9 -9 19 4 14 18 -4 11 -6 11 -12 0z"/>
<path d="M815 5170 c-3 -5 -15 -10 -26 -10 -10 0 -19 -4 -19 -10 0 -5 9 -10
20 -10 11 0 20 5 20 10 0 6 7 10 15 10 8 0 15 5 15 10 0 6 -4 10 -9 10 -6 0
-13 -4 -16 -10z"/>
<path d="M720 5139 c12 -21 1 -25 -19 -6 -11 10 -11 8 -2 -10 12 -24 4 -30
-17 -13 -9 7 -9 7 -2 -2 15 -18 12 -35 -5 -35 -9 0 -14 6 -11 14 3 8 1 11 -4
8 -21 -13 -10 -35 18 -35 21 0 32 7 40 25 6 14 18 25 26 25 8 0 18 5 22 12 5
8 2 9 -9 5 -10 -3 -17 -2 -17 3 0 6 5 10 12 10 17 0 3 10 -21 15 -18 3 -20 1
-11 -16z"/>
<path d="M659 5133 c-13 -16 -12 -17 4 -4 16 13 21 21 13 21 -2 0 -10 -8 -17
-17z"/>
<path d="M616 5078 c-9 -12 -16 -28 -16 -34 0 -7 -3 -14 -7 -17 -5 -2 -2 -2 5
0 8 1 12 -3 9 -9 -2 -7 -11 -13 -20 -13 -8 0 -19 -4 -23 -8 -4 -4 -2 -7 5 -7
8 0 10 -7 6 -21 -5 -15 -4 -19 4 -15 15 10 14 -7 -1 -22 -9 -9 -9 -12 0 -12
15 0 16 -32 2 -46 -7 -7 -6 -11 4 -11 8 0 13 4 10 9 -3 4 3 8 13 9 10 0 13 3
6 6 -7 2 -13 9 -13 14 0 6 5 7 10 4 6 -3 10 3 10 14 0 21 13 35 24 24 3 -3 2
-11 -2 -18 -4 -6 3 0 15 14 16 19 19 28 11 38 -9 12 -5 17 13 15 3 -1 6 12 6
29 0 18 -6 29 -14 29 -8 0 -12 -4 -9 -9 3 -5 -1 -14 -9 -21 -13 -11 -14 -10
-9 4 3 9 1 16 -5 16 -6 0 -9 13 -7 30 4 36 2 37 -18 8z m29 -87 c-3 -2 0 -10
7 -18 6 -7 8 -17 4 -20 -4 -4 -11 -1 -17 7 -7 12 -11 12 -17 2 -7 -10 -12 -9
-23 4 -12 16 -12 17 5 11 13 -5 17 -3 13 6 -3 7 3 13 14 13 10 0 16 -2 14 -5z
m-35 -61 c0 -5 -4 -10 -10 -10 -5 0 -10 5 -10 10 0 6 5 10 10 10 6 0 10 -4 10
-10z"/>
<path d="M543 4958 c4 -15 -1 -32 -13 -48 -11 -14 -20 -21 -20 -16 0 5 -7 3
-15 -4 -8 -7 -15 -18 -15 -24 0 -6 4 -4 10 4 5 8 12 11 16 7 4 -4 -1 -16 -11
-27 -11 -12 -13 -20 -6 -20 6 0 14 7 17 15 5 13 9 13 23 3 13 -10 14 -10 4 2
-16 18 -17 34 -1 24 7 -5 8 -3 3 6 -4 7 -2 15 4 20 15 9 22 80 9 80 -6 0 -8
-10 -5 -22z"/>
<path d="M563 4894 c-7 -7 -13 -21 -13 -31 0 -12 5 -9 15 11 17 33 16 41 -2
20z"/>
<path d="M450 4825 c-7 -9 -11 -17 -9 -20 3 -2 10 5 17 15 14 24 10 26 -8 5z"/>
<path d="M512 4821 c-8 -5 -12 -16 -10 -25 2 -12 6 -10 15 9 6 14 10 25 10 25
-1 0 -8 -4 -15 -9z"/>
<path d="M5532 4798 c-18 -58 -20 -78 -11 -78 5 0 9 8 9 18 1 9 7 34 14 55 8
20 10 37 6 37 -5 0 -13 -15 -18 -32z"/>
<path d="M460 4791 c0 -6 4 -13 10 -16 6 -3 7 1 4 9 -7 18 -14 21 -14 7z"/>
<path d="M420 4775 c-7 -9 -11 -17 -9 -20 3 -2 10 5 17 15 14 24 10 26 -8 5z"/>
<path d="M386 4715 c-18 -27 -20 -35 -8 -35 4 0 13 14 19 30 14 36 11 38 -11
5z"/>
<path d="M426 4723 c-6 -14 -5 -15 5 -6 7 7 10 15 7 18 -3 3 -9 -2 -12 -12z"/>
<path d="M871 4677 c-13 -38 -20 -71 -17 -74 8 -8 10 -5 33 47 12 28 17 55 13
70 -5 21 -10 15 -29 -43z"/>
<path d="M480 4706 c0 -2 7 -7 16 -10 8 -3 12 -2 9 4 -6 10 -25 14 -25 6z"/>
<path d="M426 4687 c3 -10 9 -15 12 -12 3 3 0 11 -7 18 -10 9 -11 8 -5 -6z"/>
<path d="M3816 4675 c4 -8 16 -14 28 -14 16 1 17 2 4 6 -10 2 -18 9 -18 14 0
5 -4 9 -10 9 -5 0 -7 -7 -4 -15z"/>
<path d="M5345 4680 c3 -6 33 -28 65 -50 l59 -40 -15 -48 c-28 -89 -29 -102
-7 -102 11 0 44 18 73 40 29 22 54 40 55 40 1 0 26 -18 55 -40 84 -63 94 -55
60 45 -11 32 -20 61 -20 64 0 4 26 26 57 51 31 24 51 46 45 48 -7 2 -34 -14
-61 -35 -57 -43 -61 -58 -31 -133 11 -27 17 -50 13 -50 -3 0 -30 19 -60 42
l-54 41 -32 -23 c-18 -13 -47 -35 -64 -48 -39 -29 -40 -24 -13 52 24 72 19 83
-58 124 -63 34 -77 38 -67 22z"/>
<path d="M353 4655 c-7 -8 -13 -20 -13 -27 0 -6 -11 -28 -25 -48 -14 -20 -28
-47 -30 -60 -3 -13 -8 -26 -13 -29 -13 -9 -33 -73 -21 -65 5 3 17 0 25 -7 12
-10 13 -9 8 5 -5 12 -2 15 10 10 21 -8 20 -16 -3 -45 -10 -13 -21 -34 -25 -46
-4 -13 -12 -23 -18 -23 -5 0 -8 -7 -5 -14 4 -10 1 -13 -8 -10 -10 4 -12 12 -4
31 5 14 7 35 4 47 -2 11 -2 15 1 9 7 -16 34 -17 34 -2 0 5 -6 7 -12 3 -10 -6
-9 -3 0 9 12 14 11 16 -7 14 -16 -1 -26 -15 -41 -55 -24 -64 -24 -62 -1 -62
26 0 35 -16 21 -37 -10 -16 -10 -16 -5 3 4 15 1 21 -11 21 -15 0 -15 -18 3
-63 4 -11 3 -15 -5 -10 -6 4 -14 23 -18 43 -4 24 -9 31 -14 22 -12 -21 -66
-216 -80 -284 -6 -33 -20 -97 -31 -142 -39 -165 -51 -283 -54 -528 -3 -221 1
-303 20 -440 4 -27 9 -61 11 -75 2 -14 8 -54 14 -90 7 -36 13 -76 15 -90 10
-69 115 -433 140 -487 8 -17 15 -37 15 -45 0 -8 5 -19 12 -26 7 -7 9 -12 5
-12 -4 0 0 -15 10 -32 9 -18 18 -39 19 -47 2 -8 12 -27 23 -42 11 -15 23 -39
27 -53 3 -14 11 -26 16 -26 6 0 8 -6 5 -14 -3 -8 1 -17 10 -20 8 -4 13 -13 9
-21 -3 -8 -2 -15 2 -15 13 0 40 -54 34 -69 -2 -8 0 -11 5 -8 5 3 38 -43 73
-101 214 -357 569 -733 907 -960 332 -223 586 -342 978 -462 93 -28 253 -62
430 -92 90 -15 188 -21 391 -25 307 -6 472 7 724 58 189 38 197 40 435 117
284 92 655 288 860 455 26 22 28 26 15 43 -12 16 -12 17 0 6 19 -17 23 -16 61
19 66 58 77 72 73 84 -3 6 3 18 13 26 17 13 17 13 3 -5 -14 -18 -13 -18 10
-11 14 4 25 8 25 9 0 0 9 11 19 23 18 21 18 24 1 49 -9 15 -12 24 -7 20 6 -3
12 0 15 6 2 8 8 9 13 4 5 -5 4 -11 -4 -13 -10 -4 -10 -8 -2 -18 14 -16 40 -9
40 11 0 8 6 14 13 14 8 0 7 4 -3 10 -10 6 -11 10 -2 10 6 0 12 7 12 15 0 8 -7
15 -15 15 -8 0 -14 -3 -12 -7 1 -5 -1 -9 -6 -10 -16 -6 -19 -2 -7 12 7 8 21
15 32 15 13 0 17 4 12 13 -5 8 -2 7 9 -2 20 -16 36 -6 19 11 -17 17 -15 33 2
19 9 -8 16 -8 20 -2 4 5 2 12 -4 16 -16 10 -11 26 8 23 12 -2 16 3 14 17 -2
16 -1 17 7 5 9 -12 11 -11 11 8 0 14 9 27 25 34 13 6 22 15 18 21 -3 5 3 6 16
2 13 -4 21 -2 21 5 0 6 5 8 10 5 6 -4 10 -3 9 2 -4 23 2 35 17 29 9 -3 12 -2
9 5 -4 6 -13 8 -21 5 -17 -7 -17 4 0 27 7 9 21 17 30 17 10 0 14 4 11 10 -4 6
1 7 11 3 13 -5 16 -3 11 10 -3 9 -2 17 4 17 6 0 8 4 4 9 -3 5 -1 12 5 16 5 3
10 15 10 25 0 10 12 28 26 39 15 12 23 25 18 32 -5 9 -11 7 -20 -5 -8 -11 -18
-15 -26 -10 -11 6 -11 5 0 -8 11 -14 10 -18 -9 -28 -19 -11 -21 -10 -16 4 4 9
2 16 -3 16 -15 0 -12 -40 3 -40 7 -1 5 -6 -5 -14 -10 -7 -18 -16 -18 -20 0 -4
-9 -16 -20 -28 -11 -12 -20 -16 -20 -9 0 7 -5 9 -12 4 -7 -4 -22 -8 -33 -8
-11 0 -40 -21 -64 -48 -24 -26 -41 -47 -38 -47 3 0 23 19 45 41 27 29 49 42
70 44 28 2 30 1 19 -16 -7 -11 -15 -19 -20 -19 -4 0 -5 4 -2 10 3 5 2 10 -3
10 -6 0 -13 -7 -16 -16 -3 -8 -11 -12 -17 -8 -8 5 -9 3 -5 -5 5 -7 14 -10 22
-7 8 3 14 1 14 -5 0 -6 7 -9 15 -5 8 3 15 1 15 -3 0 -5 -7 -12 -16 -15 -21 -8
-26 -8 -20 3 3 5 -8 11 -24 13 -26 4 -31 1 -41 -30 -7 -21 -14 -30 -18 -23 -5
8 -17 1 -34 -21 -30 -35 -35 -53 -13 -45 10 4 13 1 9 -9 -9 -24 -35 5 -30 33
3 18 1 21 -9 13 -7 -6 -11 -21 -8 -34 4 -26 -28 -62 -45 -51 -6 3 -11 -1 -11
-10 0 -9 -4 -13 -10 -10 -5 3 -10 1 -10 -5 0 -7 -6 -10 -14 -7 -7 3 -13 0 -12
-7 0 -7 -17 -28 -39 -47 -23 -19 -42 -38 -44 -44 -5 -12 -109 -88 -133 -98
-10 -3 -18 -14 -18 -23 0 -10 -5 -14 -15 -10 -8 3 -15 1 -15 -4 0 -5 -9 -12
-20 -15 -11 -4 -18 -11 -15 -16 4 -5 -1 -9 -9 -9 -9 0 -16 -4 -16 -9 0 -5 -13
-14 -30 -21 -16 -7 -43 -25 -60 -41 -17 -17 -34 -27 -39 -25 -5 3 -19 -3 -31
-14 -13 -11 -29 -20 -37 -20 -7 0 -13 -4 -13 -9 0 -5 -10 -13 -22 -16 -53 -16
-151 -71 -159 -90 -4 -11 -8 -14 -8 -7 -1 6 -6 12 -12 12 -6 0 -8 -7 -5 -16 4
-11 1 -14 -12 -10 -10 4 -33 -1 -51 -10 -38 -19 -159 -64 -281 -106 -47 -15
-94 -33 -105 -39 -18 -8 -99 -29 -215 -55 -14 -2 -41 -9 -60 -14 -19 -5 -57
-12 -85 -15 -27 -3 -104 -14 -170 -24 -124 -19 -164 -22 -377 -24 -69 -1 -124
-5 -121 -10 5 -9 -11 -9 -21 0 -4 4 -55 9 -114 10 -59 2 -120 8 -136 13 -16 6
-53 10 -83 10 -29 0 -61 4 -71 10 -14 8 -64 19 -192 44 -8 1 -24 5 -35 9 -11
3 -34 9 -50 11 -35 6 -265 81 -310 101 -16 7 -41 16 -55 20 -35 10 -79 29
-208 91 -62 30 -115 54 -118 54 -3 0 -12 7 -20 15 -9 8 -27 18 -42 22 -15 3
-34 14 -43 25 -9 10 -24 18 -33 18 -9 0 -16 3 -16 8 0 4 -17 18 -38 32 -106
70 -262 184 -302 219 -25 22 -51 39 -57 36 -7 -2 -12 -1 -10 4 1 4 -61 70
-139 147 -77 76 -151 153 -164 169 -14 17 -41 48 -60 70 -72 84 -189 245 -237
328 -20 34 -39 64 -42 67 -3 3 -17 26 -30 52 -13 26 -28 45 -34 41 -5 -3 -7
-1 -3 5 3 6 -19 63 -49 126 -30 64 -55 118 -55 121 0 2 -12 30 -26 60 -62 137
-161 481 -178 625 -2 14 -6 41 -10 60 -26 130 -32 316 -22 738 0 28 3 52 6 52
3 0 6 8 7 18 1 9 6 46 11 80 6 35 8 70 5 78 -3 8 -1 20 4 27 16 20 22 57 10
57 -8 0 -8 3 -2 8 14 10 18 42 6 42 -6 0 -13 -17 -16 -37 -4 -21 -10 -52 -15
-70 -5 -22 -4 -33 3 -37 11 -4 8 -5 -20 -6 -4 0 -8 6 -9 15 -1 8 2 15 7 15 5
0 9 7 9 15 0 8 -5 15 -12 15 -9 0 -9 3 0 12 7 7 12 25 12 40 0 15 5 28 11 28
7 0 8 11 4 31 l-7 31 21 -21 c26 -26 37 -27 37 -2 0 13 -6 18 -18 16 -12 -3
-18 2 -18 16 0 11 -5 17 -10 14 -6 -3 -10 -2 -10 3 0 15 35 20 56 9 17 -10 18
-9 5 7 -8 9 -20 15 -28 12 -16 -6 -18 10 -2 20 6 3 8 15 6 26 -4 15 -3 17 8 8
8 -6 12 -17 9 -25 -6 -14 13 -31 24 -20 3 3 0 10 -8 15 -13 8 -12 10 3 10 9 0
17 5 17 10 0 6 -8 10 -17 8 -14 -2 -17 3 -15 27 1 17 2 41 2 54 0 24 0 24 18
4 22 -26 39 -11 43 38 2 19 8 41 15 49 11 14 34 77 38 105 1 7 7 20 14 28 7 8
10 27 6 45 -6 27 -9 30 -25 21 -13 -6 -25 -6 -39 1 -20 11 -27 29 -12 31 4 0
15 2 24 4 12 2 15 -2 10 -13 -5 -14 -4 -15 10 -2 10 10 13 19 7 26 -6 8 -3 13
11 17 12 3 20 0 20 -8 0 -7 7 -18 15 -25 12 -10 15 -10 15 4 0 9 -4 16 -8 16
-5 0 -16 15 -25 33 -13 27 -16 29 -16 10 -1 -16 -5 -21 -16 -16 -10 3 -15 1
-13 -7 2 -7 -3 -15 -10 -17 -17 -6 -10 30 15 78 14 27 25 35 43 34 21 -2 21
-1 6 11 -12 8 -16 19 -11 33 7 24 5 26 -12 6z m7 -265 c0 -9 -15 -14 -33 -11
-4 1 -3 -7 2 -18 8 -13 8 -20 0 -23 -5 -2 -11 -10 -12 -18 -2 -8 -6 -21 -10
-27 -5 -7 -6 -17 -3 -22 3 -5 0 -11 -7 -14 -7 -2 -13 -17 -15 -33 -1 -15 -7
-31 -12 -34 -6 -4 -8 -14 -4 -23 11 -29 -4 -18 -20 14 -15 30 -15 31 5 26 14
-4 18 -2 11 6 -15 19 2 92 19 82 5 -4 9 4 9 17 0 18 -2 20 -10 8 -5 -8 -10
-10 -10 -4 0 7 11 19 25 28 15 10 22 22 19 31 -4 8 -3 22 0 30 4 13 10 14 26
5 11 -6 20 -15 20 -20z m-184 -260 c-4 -22 -2 -29 6 -24 7 4 8 3 4 -5 -4 -6
-12 -8 -18 -5 -7 4 -8 -2 -3 -17 6 -18 4 -21 -5 -13 -9 9 -9 21 1 53 14 48 24
55 15 11z m-31 -140 c3 -5 1 -10 -4 -10 -6 0 -11 5 -11 10 0 6 2 10 4 10 3 0
8 -4 11 -10z m7 -285 c-8 -16 -9 -16 -15 -1 -4 10 -3 15 3 11 6 -3 10 -1 10 6
0 7 3 10 6 6 3 -3 2 -13 -4 -22z m-107 -165 c3 -5 1 -10 -4 -10 -6 0 -11 5
-11 10 0 6 2 10 4 10 3 0 8 -4 11 -10z m13 -445 c-3 -3 -9 2 -12 12 -6 14 -5
15 5 6 7 -7 10 -15 7 -18z m69 -27 c-3 -7 -5 -2 -5 12 0 14 2 19 5 13 2 -7 2
-19 0 -25z m10 -110 c-3 -8 -6 -5 -6 6 -1 11 2 17 5 13 3 -3 4 -12 1 -19z m13
-60 c0 -19 -2 -20 -10 -8 -13 19 -13 30 0 30 6 0 10 -10 10 -22z m5400 -1768
c0 -5 -5 -10 -11 -10 -5 0 -7 5 -4 10 3 6 8 10 11 10 2 0 4 -4 4 -10z m-70
-84 c0 -3 -4 -8 -10 -11 -5 -3 -10 -1 -10 4 0 6 5 11 10 11 6 0 10 -2 10 -4z
m-124 -81 c-8 -8 -18 -15 -22 -15 -3 0 -1 7 6 15 7 8 17 15 22 15 5 0 3 -7 -6
-15z m59 -65 c-3 -5 -12 -10 -18 -10 -7 0 -6 4 3 10 19 12 23 12 15 0z m-62
-15 c-3 -9 -8 -14 -10 -11 -3 3 -2 9 2 15 9 16 15 13 8 -4z m-23 -19 c0 -2 -7
-9 -15 -16 -13 -11 -14 -10 -9 4 5 14 24 23 24 12z m-2 -46 c-11 -18 -28 -27
-28 -16 0 6 30 36 36 36 2 0 -1 -9 -8 -20z m-71 -22 c-16 -9 -27 0 -21 17 5
11 9 12 19 2 9 -8 10 -14 2 -19z m-50 -68 c10 0 0 -19 -12 -24 -8 -3 -14 0
-12 6 1 7 -5 13 -13 14 -8 0 -24 2 -35 3 -16 1 -17 3 -6 10 8 5 27 5 45 0 17
-5 32 -9 33 -9z m-42 -30 c3 -5 1 -10 -4 -10 -6 0 -11 5 -11 10 0 6 2 10 4 10
3 0 8 -4 11 -10z m-25 -5 c0 -7 -30 -13 -34 -7 -3 4 4 9 15 9 10 1 19 0 19 -2z
m-110 -50 c0 -8 -2 -15 -4 -15 -2 0 -11 -3 -20 -6 -9 -3 -16 -1 -16 6 0 6 5 8
12 4 8 -5 9 -2 5 9 -4 11 -1 17 8 17 8 0 15 -7 15 -15z m10 -35 c0 -5 -5 -10
-11 -10 -5 0 -7 5 -4 10 3 6 8 10 11 10 2 0 4 -4 4 -10z"/>
<path d="M270 4270 c0 -5 5 -10 11 -10 5 0 7 5 4 10 -3 6 -8 10 -11 10 -2 0
-4 -4 -4 -10z"/>
<path d="M445 4650 c-3 -6 1 -7 9 -4 18 7 21 14 7 14 -6 0 -13 -4 -16 -10z"/>
<path d="M416 4614 c-4 -10 -1 -14 6 -12 15 5 23 28 10 28 -5 0 -13 -7 -16
-16z"/>
<path d="M690 4582 c0 -4 27 -27 59 -50 l60 -42 -20 -57 c-22 -64 -25 -103 -7
-103 6 0 32 17 57 38 67 56 65 56 127 12 57 -40 84 -49 84 -30 0 6 -5 10 -11
10 -6 0 -36 20 -68 45 -31 25 -61 45 -67 45 -5 0 -20 -12 -33 -25 -12 -14 -28
-22 -34 -18 -5 3 -8 2 -5 -3 3 -5 -3 -18 -13 -28 -23 -23 -24 -12 -5 43 21 57
30 125 16 116 -5 -3 -8 -11 -5 -16 11 -17 -3 -9 -61 31 -57 40 -74 47 -74 32z"/>
<path d="M1047 4551 c-30 -22 -59 -36 -63 -33 -5 4 -3 -1 5 -10 11 -15 18 -13
72 28 32 25 59 47 59 50 0 11 -21 1 -73 -35z"/>
<path d="M373 4565 c-3 -9 -3 -18 -1 -21 3 -3 8 4 11 16 6 23 -1 27 -10 5z"/>
<path d="M430 4560 c-9 -6 -10 -10 -3 -10 6 0 15 5 18 10 8 12 4 12 -15 0z"/>
<path d="M387 4537 c-6 -16 3 -37 15 -37 6 0 4 7 -3 17 -12 15 -12 16 4 10 9
-3 17 -2 17 2 0 14 -28 21 -33 8z"/>
<path d="M246 4343 c-6 -14 -5 -15 5 -6 7 7 10 15 7 18 -3 3 -9 -2 -12 -12z"/>
<path d="M5070 4300 c8 -5 22 -10 30 -10 13 0 13 1 0 10 -8 5 -22 10 -30 10
-13 0 -13 -1 0 -10z"/>
<path d="M5223 4288 c4 -12 1 -18 -8 -18 -8 0 -15 -4 -15 -10 0 -5 7 -6 17 -3
9 4 14 2 10 -3 -3 -5 6 -11 20 -12 l27 -2 -25 27 c-13 16 -26 30 -28 33 -2 3
-1 -3 2 -12z"/>
<path d="M5110 4272 c0 -17 21 -25 31 -13 5 6 6 9 3 6 -4 -3 -13 0 -21 6 -9 8
-13 8 -13 1z"/>
<path d="M4160 4237 c0 -2 9 -14 20 -27 11 -13 20 -18 20 -12 0 6 -7 18 -16
26 -15 15 -24 20 -24 13z"/>
<path d="M5326 4227 c3 -10 9 -15 12 -12 3 3 0 11 -7 18 -10 9 -11 8 -5 -6z"/>
<path d="M4386 4217 c3 -10 9 -15 12 -12 3 3 0 11 -7 18 -10 9 -11 8 -5 -6z"/>
<path d="M5100 4203 c0 -5 7 -18 15 -29 12 -16 14 -16 15 -3 0 9 -7 22 -15 29
-8 7 -15 8 -15 3z"/>
<path d="M5240 4201 c0 -10 80 -20 86 -10 2 4 -10 9 -27 13 -43 8 -59 8 -59
-3z"/>
<path d="M5150 4180 c-13 -8 -12 -10 3 -10 9 0 17 5 17 10 0 12 -1 12 -20 0z"/>
<path d="M5197 4184 c-10 -11 2 -24 17 -18 8 3 18 -7 26 -25 8 -20 20 -31 32
-31 10 0 16 5 13 10 -3 6 -12 10 -18 10 -7 0 -18 14 -24 30 -10 28 -31 39 -46
24z"/>
<path d="M1060 4129 c-11 -24 -20 -51 -20 -61 0 -9 -4 -18 -10 -20 -21 -7
-131 -420 -116 -435 3 -4 2 -11 -3 -17 -23 -30 -36 -333 -21 -510 13 -153 38
-328 49 -336 4 -3 8 -14 8 -26 3 -37 45 -169 60 -184 13 -13 13 -11 7 15 -4
17 -17 64 -29 105 -29 96 -55 252 -71 423 -3 37 -10 67 -15 67 -5 0 -9 7 -9
15 0 8 4 15 10 15 6 0 10 51 9 133 0 210 23 375 81 563 17 53 30 101 30 106 0
6 6 24 14 41 39 89 57 139 52 144 -3 3 -15 -14 -26 -38z"/>
<path d="M5075 4160 c-3 -6 1 -7 9 -4 18 7 21 14 7 14 -6 0 -13 -4 -16 -10z"/>
<path d="M4550 4150 c20 -13 33 -13 25 0 -3 6 -14 10 -23 10 -15 0 -15 -2 -2
-10z"/>
<path d="M4700 4140 c-12 -8 -10 -10 8 -10 13 0 20 4 17 10 -7 12 -6 12 -25 0z"/>
<path d="M4362 4121 c2 -7 7 -12 11 -12 12 1 9 15 -3 20 -7 2 -11 -2 -8 -8z"/>
<path d="M256 4106 c6 -15 4 -17 -6 -11 -9 6 -11 4 -5 -4 5 -9 10 -10 18 -2 8
8 7 14 -2 24 -10 10 -11 8 -5 -7z"/>
<path d="M4630 4111 c0 -5 5 -13 10 -16 6 -3 10 -2 10 4 0 5 -4 13 -10 16 -5
3 -10 2 -10 -4z"/>
<path d="M5380 4115 c0 -5 5 -17 10 -25 5 -8 10 -10 10 -5 0 6 -5 17 -10 25
-5 8 -10 11 -10 5z"/>
<path d="M4648 4063 c6 -2 18 -2 25 0 6 3 1 5 -13 5 -14 0 -19 -2 -12 -5z"/>
<path d="M5355 4050 c28 -12 37 -12 30 0 -3 6 -16 10 -28 9 -21 0 -21 -1 -2
-9z"/>
<path d="M4430 4046 c0 -6 121 -48 126 -43 6 5 -94 47 -112 47 -8 0 -14 -2
-14 -4z"/>
<path d="M4686 4024 c18 -27 26 -31 18 -9 -4 8 -1 15 5 15 6 0 11 -6 11 -14 0
-7 7 -19 15 -26 12 -10 15 -10 15 1 -1 24 -29 52 -55 55 -24 3 -24 2 -9 -22z"/>
<path d="M5411 4044 c-1 -5 8 -37 18 -70 11 -32 23 -72 27 -89 4 -16 9 -23 11
-15 2 8 -10 53 -26 100 -16 47 -30 80 -30 74z"/>
<path d="M4770 4030 c0 -5 5 -10 11 -10 5 0 7 5 4 10 -3 6 -8 10 -11 10 -2 0
-4 -4 -4 -10z"/>
<path d="M4894 4005 c36 -19 41 -19 22 0 -8 8 -23 15 -33 15 -13 0 -10 -4 11
-15z"/>
<path d="M4945 4010 c-8 -13 9 -20 24 -11 10 6 9 10 -3 14 -8 3 -18 2 -21 -3z"/>
<path d="M5040 4001 c0 -5 11 -12 25 -15 14 -4 25 -11 25 -16 0 -6 7 -10 16
-10 10 0 6 8 -14 25 -30 25 -52 32 -52 16z"/>
<path d="M5335 4000 c3 -5 8 -10 11 -10 2 0 4 5 4 10 0 6 -5 10 -11 10 -5 0
-7 -4 -4 -10z"/>
<path d="M5365 3990 c-4 -6 -4 -10 -1 -10 2 0 11 -3 20 -6 9 -3 16 -2 16 4 0
14 -28 23 -35 12z"/>
<path d="M4405 3983 c11 -3 40 -25 65 -49 24 -24 49 -44 55 -44 5 0 -2 11 -17
24 -15 12 -25 26 -21 30 3 3 2 6 -4 6 -5 0 -20 9 -33 20 -13 11 -32 19 -44 19
-20 -1 -20 -2 -1 -6z"/>
<path d="M4830 3936 c0 -14 52 -26 68 -16 14 8 13 9 -8 8 -14 0 -33 3 -42 7
-10 4 -18 4 -18 1z"/>
<path d="M5010 3890 c0 -5 5 -10 10 -10 6 0 10 5 10 10 0 6 -4 10 -10 10 -5 0
-10 -4 -10 -10z"/>
<path d="M4390 3886 c0 -2 7 -7 16 -10 8 -3 12 -2 9 4 -6 10 -25 14 -25 6z"/>
<path d="M5150 3871 c0 -14 28 -33 44 -29 11 2 7 8 -14 20 -17 9 -30 13 -30 9z"/>
<path d="M5230 3869 c0 -5 9 -9 20 -9 11 0 20 2 20 4 0 2 -9 6 -20 9 -11 3
-20 1 -20 -4z"/>
<path d="M6402 3855 c0 -16 2 -22 5 -12 2 9 2 23 0 30 -3 6 -5 -1 -5 -18z"/>
<path d="M4230 3855 c0 -8 4 -15 10 -15 5 0 7 7 4 15 -4 8 -8 15 -10 15 -2 0
-4 -7 -4 -15z"/>
<path d="M5034 3861 c7 -11 66 -32 66 -24 0 3 -8 12 -17 19 -20 15 -57 19 -49
5z"/>
<path d="M4435 3841 c-3 -5 2 -11 10 -15 8 -3 17 -1 20 3 3 5 -2 11 -10 15 -8
3 -17 1 -20 -3z"/>
<path d="M4690 3844 c0 -6 16 -24 35 -41 21 -19 35 -26 35 -17 0 7 -10 19 -22
25 -13 7 -28 19 -35 28 -7 9 -13 11 -13 5z"/>
<path d="M5446 3834 c-24 -23 -19 -27 9 -8 14 9 25 18 25 20 0 10 -20 3 -34
-12z"/>
<path d="M4340 3836 c0 -2 7 -7 16 -10 8 -3 12 -2 9 4 -6 10 -25 14 -25 6z"/>
<path d="M4800 3830 c0 -5 9 -12 21 -15 11 -4 27 -22 35 -41 8 -19 18 -34 24
-34 17 0 -32 78 -56 89 -13 6 -24 6 -24 1z"/>
<path d="M5136 3805 c4 -8 11 -15 16 -15 6 0 5 6 -2 15 -7 8 -14 15 -16 15 -2
0 -1 -7 2 -15z"/>
<path d="M5220 3780 c17 -18 38 -30 52 -29 21 1 21 2 -7 14 -16 8 -26 14 -21
15 13 0 -26 29 -41 30 -6 0 2 -13 17 -30z"/>
<path d="M4498 3773 c7 -3 16 -2 19 1 4 3 -2 6 -13 5 -11 0 -14 -3 -6 -6z"/>
<path d="M4530 3770 c0 -5 14 -10 32 -10 36 0 35 4 -4 14 -17 4 -28 2 -28 -4z"/>
<path d="M4760 3750 c0 -5 5 -10 11 -10 5 0 7 5 4 10 -3 6 -8 10 -11 10 -2 0
-4 -4 -4 -10z"/>
<path d="M4570 3720 c-18 -12 -2 -12 25 0 13 6 15 9 5 9 -8 0 -22 -4 -30 -9z"/>
<path d="M4447 3709 c7 -7 15 -10 18 -7 3 3 -2 9 -12 12 -14 6 -15 5 -6 -5z"/>
<path d="M5068 3703 c7 -3 16 -2 19 1 4 3 -2 6 -13 5 -11 0 -14 -3 -6 -6z"/>
<path d="M4205 3678 c30 -16 31 -18 15 -28 -12 -8 -11 -10 6 -10 11 0 24 3 27
6 8 8 -37 44 -55 44 -7 0 -4 -6 7 -12z"/>
<path d="M4300 3679 c0 -5 5 -7 10 -4 6 3 10 8 10 11 0 2 -4 4 -10 4 -5 0 -10
-5 -10 -11z"/>
<path d="M4608 3683 c6 -2 18 -2 25 0 6 3 1 5 -13 5 -14 0 -19 -2 -12 -5z"/>
<path d="M5513 3645 c6 -25 12 -43 15 -41 7 7 -9 86 -17 86 -5 0 -4 -20 2 -45z"/>
<path d="M4695 3659 c-4 -6 -1 -17 7 -25 12 -12 14 -11 15 6 2 23 -13 35 -22
19z"/>
<path d="M5032 3651 c7 -11 18 -23 25 -25 22 -9 14 8 -13 28 -25 18 -25 18
-12 -3z"/>
<path d="M4800 3654 c0 -12 35 -33 56 -34 11 0 26 -6 33 -12 10 -11 12 -9 9 7
-2 13 -12 20 -28 21 -14 0 -35 6 -47 13 -13 6 -23 9 -23 5z"/>
<path d="M4020 3640 c0 -5 5 -10 11 -10 5 0 7 5 4 10 -3 6 -8 10 -11 10 -2 0
-4 -4 -4 -10z"/>
<path d="M4737 3627 c-5 -13 30 -43 40 -34 5 6 -19 47 -28 47 -4 0 -9 -6 -12
-13z"/>
<path d="M3985 3620 c-3 -5 -1 -10 4 -10 6 0 11 5 11 10 0 6 -2 10 -4 10 -3 0
-8 -4 -11 -10z"/>
<path d="M5476 3614 c-5 -14 -4 -15 9 -4 17 14 19 20 6 20 -5 0 -12 -7 -15
-16z"/>
<path d="M4118 3613 c7 -3 16 -2 19 1 4 3 -2 6 -13 5 -11 0 -14 -3 -6 -6z"/>
<path d="M4254 3600 c-5 -5 -25 -13 -44 -19 -33 -9 -33 -10 -5 -7 17 2 37 5
45 9 8 3 22 7 29 9 13 4 12 5 -1 10 -8 4 -19 3 -24 -2z"/>
<path d="M5211 3602 c-8 -3 -1 -10 19 -18 18 -8 34 -13 36 -12 6 7 -43 34 -55
30z"/>
<path d="M4325 3570 c-3 -5 -2 -10 4 -10 5 0 13 5 16 10 3 6 2 10 -4 10 -5 0
-13 -4 -16 -10z"/>
<path d="M4365 3550 c3 -5 8 -10 11 -10 2 0 4 5 4 10 0 6 -5 10 -11 10 -5 0
-7 -4 -4 -10z"/>
<path d="M4000 3540 c-13 -8 -13 -10 2 -10 9 0 19 -6 21 -12 3 -7 6 -3 6 10 1
24 -6 27 -29 12z"/>
<path d="M4054 3534 c-18 -15 -17 -15 13 -10 25 4 31 2 26 -9 -3 -8 -1 -15 5
-15 6 0 19 -3 29 -6 16 -5 16 -4 -2 11 -19 15 -19 16 15 15 67 -2 113 11 96
27 -4 4 -10 3 -14 -3 -8 -11 -96 -13 -108 -1 -12 12 -39 8 -60 -9z"/>
<path d="M5166 3542 c-2 -4 4 -9 15 -9 11 -1 17 2 14 8 -7 11 -22 12 -29 1z"/>
<path d="M4713 3524 c0 -7 11 -15 25 -19 34 -8 35 -2 3 16 -21 12 -28 13 -28
3z"/>
<path d="M5070 3531 c0 -12 39 -35 46 -28 3 2 -7 12 -21 21 -14 9 -25 12 -25
7z"/>
<path d="M4250 3526 c0 -2 9 -6 20 -9 11 -3 18 -1 14 4 -5 9 -34 13 -34 5z"/>
<path d="M5922 3479 c-14 -61 -15 -82 -3 -75 5 4 12 25 16 49 3 23 9 50 11 60
3 9 1 17 -4 17 -5 0 -14 -23 -20 -51z"/>
<path d="M5974 3505 c6 -36 35 -109 42 -102 3 2 -7 33 -21 68 -14 36 -23 51
-21 34z"/>
<path d="M3875 3510 c-18 -8 -17 -9 8 -9 15 -1 27 4 27 9 0 12 -8 12 -35 0z"/>
<path d="M4240 3480 c0 -5 10 -10 23 -10 18 0 19 2 7 10 -19 13 -30 13 -30 0z"/>
<path d="M5360 3483 c0 -17 70 -63 97 -63 24 1 25 2 10 11 -9 5 -21 8 -25 5
-5 -3 -25 9 -45 25 -20 17 -37 27 -37 22z"/>
<path d="M4106 3459 c-22 -21 -18 -23 18 -9 18 6 34 6 50 -1 17 -8 29 -8 42 1
17 10 15 11 -9 5 -19 -4 -29 -1 -33 9 -7 19 -45 17 -68 -5z"/>
<path d="M4440 3470 c-24 -8 -24 -8 7 -9 17 -1 35 4 38 9 7 11 -9 11 -45 0z"/>
<path d="M4892 3460 c7 -11 20 -20 28 -20 11 1 10 3 -4 11 -15 9 -16 13 -5 20
10 6 8 9 -9 9 -20 0 -21 -2 -10 -20z"/>
<path d="M5226 3466 c3 -8 13 -17 21 -20 25 -10 23 -3 -3 17 -18 13 -22 14
-18 3z"/>
<path d="M3897 3453 c-19 -11 -17 -11 18 -6 22 3 44 9 49 13 13 12 -43 6 -67
-7z"/>
<path d="M4307 3459 c7 -7 15 -10 18 -7 3 3 -2 9 -12 12 -14 6 -15 5 -6 -5z"/>
<path d="M4945 3462 c8 -9 65 -9 59 -1 -2 4 -18 7 -34 7 -17 -1 -28 -3 -25 -6z"/>
<path d="M4465 3440 c-3 -5 1 -10 9 -10 22 0 89 -33 99 -47 4 -7 15 -13 23
-13 11 0 8 7 -10 25 -14 14 -34 25 -45 25 -11 0 -26 7 -35 15 -17 17 -32 19
-41 5z"/>
<path d="M4818 3443 c6 -2 18 -2 25 0 6 3 1 5 -13 5 -14 0 -19 -2 -12 -5z"/>
<path d="M6450 3440 c20 -13 33 -13 25 0 -3 6 -14 10 -23 10 -15 0 -15 -2 -2
-10z"/>
<path d="M5010 3431 c0 -5 7 -12 16 -15 14 -5 15 -4 4 9 -14 17 -20 19 -20 6z"/>
<path d="M525 3363 c-10 -32 -19 -70 -20 -84 -1 -14 -5 -30 -8 -36 -4 -7 -3
-14 2 -18 6 -3 8 -12 4 -20 -6 -18 13 -20 21 -2 3 6 3 0 0 -16 -5 -21 -1 -32
17 -47 13 -10 19 -19 13 -20 -6 0 -17 7 -24 15 -18 21 -27 11 -24 -27 3 -30 3
-31 -5 -8 -13 35 -13 72 -1 65 14 -8 13 -3 -6 33 -8 18 -13 36 -10 41 4 5 2
12 -4 16 -5 3 -10 1 -10 -5 0 -6 -4 -8 -10 -5 -5 3 -10 1 -10 -6 0 -9 -4 -9
-15 1 -8 6 -18 9 -23 6 -5 -3 -20 1 -35 9 -39 20 -48 -3 -12 -29 16 -12 42
-33 59 -48 l31 -26 -14 -49 c-24 -84 -24 -92 -7 -99 10 -4 33 9 65 35 27 23
54 41 60 41 5 0 38 -18 72 -40 46 -30 65 -37 73 -29 8 8 7 13 -4 17 -8 3 -27
18 -43 33 -15 16 -31 28 -35 28 -3 0 -8 4 -10 10 -2 6 1 11 7 11 15 0 8 37 -9
53 -12 10 -12 9 -2 -5 9 -11 10 -18 2 -23 -13 -8 -24 20 -16 41 5 13 9 14 21
4 17 -14 20 -3 5 20 -6 10 -4 21 8 34 16 18 16 18 -4 8 -16 -9 -23 -7 -35 6
-8 9 -14 24 -14 32 0 8 -8 14 -17 14 -14 -1 -17 4 -12 25 4 14 10 29 14 34 8
9 0 67 -9 67 -4 0 -16 -26 -26 -57z m29 -98 c-4 -8 -10 -12 -15 -9 -11 6 -2
24 11 24 5 0 7 -7 4 -15z m36 -29 c0 -2 3 -11 6 -20 9 -23 -9 -20 -24 4 -10
17 -10 20 3 20 8 0 15 -2 15 -4z m-129 -33 c13 -16 12 -17 -3 -4 -10 7 -18 15
-18 17 0 8 8 3 21 -13z m101 -35 c-2 -10 -8 -15 -13 -12 -11 6 -12 48 -2 58
10 10 21 -24 15 -46z"/>
<path d="M3907 3405 c-21 -8 -45 -12 -55 -9 -9 3 -5 -2 11 -11 19 -11 33 -13
44 -7 12 7 21 4 35 -12 15 -18 19 -19 27 -6 8 11 5 17 -9 22 -12 5 -17 13 -14
23 3 8 5 15 3 14 -2 0 -21 -7 -42 -14z"/>
<path d="M4040 3409 c0 -7 -11 -8 -30 -4 -34 8 -40 -4 -10 -23 11 -7 20 -17
20 -23 0 -17 -83 -49 -129 -49 -32 0 -42 -3 -34 -11 19 -19 68 -13 116 15 27
14 63 26 83 26 19 0 44 5 55 10 12 7 19 7 19 1 0 -6 7 -8 17 -4 14 5 13 8 -6
15 -12 4 -19 12 -16 18 4 6 -7 9 -27 9 -23 -1 -26 -3 -10 -6 12 -2 22 -9 22
-14 0 -12 -67 -12 -75 1 -3 6 1 10 9 10 9 0 13 6 10 14 -4 9 3 16 18 19 21 4
20 4 -4 6 -16 0 -28 -4 -28 -10z"/>
<path d="M4173 3413 c10 -9 147 -31 142 -23 -5 8 -40 16 -109 25 -21 2 -36 2
-33 -2z"/>
<path d="M3750 3406 c0 -2 7 -7 16 -10 8 -3 12 -2 9 4 -6 10 -25 14 -25 6z"/>
<path d="M4496 3398 c4 -7 14 -21 22 -30 14 -16 13 -18 -7 -18 -12 0 -20 -4
-16 -9 3 -5 21 -7 40 -4 21 3 35 1 35 -5 0 -5 14 -15 30 -21 17 -5 30 -8 30
-6 0 13 -47 45 -67 45 -15 0 -28 10 -38 30 -9 17 -20 30 -26 30 -6 0 -7 -6 -3
-12z"/>
<path d="M4168 3392 c-29 -6 -20 -22 12 -22 17 0 30 4 30 9 0 12 -21 18 -42
13z"/>
<path d="M5100 3385 c7 -8 17 -15 22 -15 6 0 5 7 -2 15 -7 8 -17 15 -22 15 -6
0 -5 -7 2 -15z"/>
<path d="M2002 3370 c0 -14 2 -19 5 -12 2 6 2 18 0 25 -3 6 -5 1 -5 -13z"/>
<path d="M3795 3380 c3 -5 12 -7 20 -3 21 7 19 13 -6 13 -11 0 -18 -4 -14 -10z"/>
<path d="M5284 3375 c26 -19 42 -19 26 0 -7 8 -20 15 -29 15 -13 -1 -13 -3 3
-15z"/>
<path d="M6108 3344 c-59 -47 -68 -67 -47 -106 14 -26 21 -68 12 -68 -5 1 -24
14 -43 30 -19 17 -44 30 -56 30 -12 0 -44 -18 -72 -40 -27 -22 -52 -40 -55
-40 -3 0 5 32 19 71 14 40 22 75 17 79 -22 19 -104 69 -122 75 -40 12 -21 -14
39 -55 33 -22 60 -45 60 -49 0 -5 -9 -37 -20 -72 -29 -94 -16 -100 72 -38 33
22 64 38 71 35 7 -3 34 -22 61 -41 65 -47 76 -36 47 50 -12 37 -19 70 -16 75
2 4 27 25 55 46 27 21 50 44 50 51 0 21 -12 16 -72 -33z"/>
<path d="M2173 3372 c-31 -5 -29 -22 2 -22 l24 0 3 -137 3 -138 33 -3 32 -3
-2 138 -2 138 -3 -127 c-3 -119 -5 -128 -23 -128 -13 0 -19 6 -18 18 1 9 0 72
0 138 -2 128 -4 134 -49 126z"/>
<path d="M1615 3361 c-52 -16 -96 -78 -94 -133 1 -15 5 -9 12 18 15 51 33 73
73 90 41 17 97 2 131 -34 22 -23 24 -34 21 -80 -3 -35 -1 -51 6 -49 16 5 19
97 5 124 -24 44 -107 78 -154 64z"/>
<path d="M1896 3361 c-7 -11 22 -23 35 -15 5 3 10 -5 10 -18 1 -13 2 -27 4
-33 1 -5 3 -61 3 -122 l2 -113 29 0 c17 0 31 6 35 16 9 24 8 25 -14 12 -10 -7
-21 -10 -24 -7 -3 3 -7 64 -9 137 -2 73 -6 135 -9 138 -11 10 -57 14 -62 5z"/>
<path d="M3710 3360 c0 -5 7 -10 16 -10 8 0 12 5 9 10 -3 6 -10 10 -16 10 -5
0 -9 -4 -9 -10z"/>
<path d="M5066 3356 c3 -8 12 -17 20 -20 11 -4 12 -2 1 14 -14 23 -29 27 -21
6z"/>
<path d="M1224 3320 c-10 -22 -24 -40 -31 -40 -16 0 -16 2 -4 33 8 19 6 27 -4
31 -14 5 -20 -8 -27 -59 -2 -16 4 -21 29 -23 28 -3 32 1 43 32 6 19 20 38 30
41 37 12 77 -26 64 -60 -4 -9 0 -15 10 -15 12 0 16 9 16 34 0 39 -32 66 -79
66 -25 0 -32 -6 -47 -40z"/>
<path d="M3806 3350 c14 -14 74 -24 74 -12 0 5 -14 12 -31 16 -45 9 -55 8 -43
-4z"/>
<path d="M4205 3350 c3 -5 8 -10 11 -10 2 0 4 5 4 10 0 6 -5 10 -11 10 -5 0
-7 -4 -4 -10z"/>
<path d="M4620 3353 c0 -17 46 -62 70 -67 23 -6 23 -5 6 6 -10 7 -31 26 -47
41 -16 16 -29 25 -29 20z"/>
<path d="M560 3331 c0 -6 4 -13 10 -16 6 -3 7 1 4 9 -7 18 -14 21 -14 7z"/>
<path d="M3726 3309 c9 -10 23 -19 29 -19 7 0 18 -6 25 -14 6 -8 18 -12 26 -9
20 7 18 21 -3 19 -12 -1 -17 5 -15 17 2 12 -4 17 -20 18 -13 0 -31 2 -41 4
-18 3 -18 3 -1 -16z"/>
<path d="M4045 3320 c-16 -7 -17 -9 -3 -9 9 -1 20 4 23 9 7 11 7 11 -20 0z"/>
<path d="M4347 3319 c7 -7 15 -10 18 -7 3 3 -2 9 -12 12 -14 6 -15 5 -6 -5z"/>
<path d="M1470 3287 c-40 -117 45 -238 170 -240 85 -1 173 67 185 143 l5 35
-10 -31 c-13 -40 -74 -101 -118 -115 -82 -27 -170 11 -204 88 -20 45 -18 113
3 139 5 7 3 11 -6 11 -8 0 -19 -14 -25 -30z"/>
<path d="M4869 3297 c14 -15 34 -27 45 -26 19 1 18 2 -5 12 -14 7 -35 19 -45
27 -11 8 -9 3 5 -13z"/>
<path d="M1388 3284 c-4 -18 -34 -64 -68 -103 -34 -39 -57 -71 -52 -71 16 0
102 101 119 138 8 19 13 41 11 50 -2 10 -7 4 -10 -14z"/>
<path d="M4436 3298 c3 -4 23 -12 45 -18 22 -6 47 -14 55 -17 8 -3 14 0 14 6
0 6 -9 11 -19 11 -11 0 -22 4 -25 9 -3 5 -21 11 -40 13 -19 2 -32 0 -30 -4z"/>
<path d="M3600 3290 c0 -5 5 -10 10 -10 6 0 10 5 10 10 0 6 -4 10 -10 10 -5 0
-10 -4 -10 -10z"/>
<path d="M3944 3285 c-19 -15 -19 -16 1 -14 40 3 51 -1 83 -30 32 -30 44 -29
20 1 -13 14 -72 58 -80 58 -2 0 -13 -7 -24 -15z"/>
<path d="M4340 3286 c14 -8 28 -12 33 -9 4 2 14 -1 22 -7 8 -7 15 -8 15 -3 0
13 -45 33 -73 33 -21 -1 -21 -1 3 -14z"/>
<path d="M4751 3287 c2 -1 13 -9 24 -17 19 -14 19 -14 6 3 -7 9 -18 17 -24 17
-6 0 -8 -1 -6 -3z"/>
<path d="M3645 3260 c-4 -6 3 -10 15 -10 12 0 18 -4 15 -10 -3 -5 1 -10 9 -10
8 0 18 5 21 11 5 7 14 3 27 -10 22 -24 15 -45 -13 -38 -11 3 -19 1 -19 -4 0
-16 41 -10 68 10 15 10 37 22 50 25 12 4 20 12 16 17 -3 5 -15 3 -27 -6 -29
-20 -53 -19 -69 3 -15 21 -45 42 -34 24 9 -14 5 -15 -28 -2 -16 6 -27 6 -31 0z"/>
<path d="M3840 3255 c9 -11 108 -40 115 -34 1 2 -26 13 -61 24 -35 12 -59 16
-54 10z"/>
<path d="M4188 3263 c6 -2 18 -2 25 0 6 3 1 5 -13 5 -14 0 -19 -2 -12 -5z"/>
<path d="M726 3241 c-17 -11 -35 -17 -40 -14 -6 3 -8 3 -4 -2 4 -4 0 -13 -9
-20 -15 -11 -28 -45 -16 -45 7 0 123 90 123 96 0 10 -27 2 -54 -15z"/>
<path d="M4080 3250 c0 -5 4 -10 9 -10 6 0 13 5 16 10 3 6 -1 10 -9 10 -9 0
-16 -4 -16 -10z"/>
<path d="M5500 3240 c0 -5 7 -7 15 -4 8 4 15 8 15 10 0 2 -7 4 -15 4 -8 0 -15
-4 -15 -10z"/>
<path d="M4390 3234 c0 -3 70 -44 77 -44 3 0 -1 8 -8 17 -12 15 -12 16 4 10
10 -4 21 -7 23 -7 3 0 3 -4 0 -9 -4 -5 6 -12 21 -15 36 -7 116 -5 108 2 -9 9
-225 54 -225 46z"/>
<path d="M5430 3230 c-9 -6 -10 -10 -3 -10 6 0 15 5 18 10 8 12 4 12 -15 0z"/>
<path d="M4277 3219 c6 -6 9 -17 7 -24 -5 -11 60 -39 181 -80 20 -7 20 -6 1 9
-26 21 1 21 28 1 21 -16 67 -21 51 -6 -14 12 -148 61 -165 60 -8 -1 -4 -4 9
-8 14 -4 26 -12 29 -19 3 -9 -7 -7 -32 4 -19 10 -33 21 -30 26 3 4 -5 8 -18 8
-13 0 -29 9 -36 20 -7 11 -18 20 -24 20 -9 0 -9 -3 -1 -11z"/>
<path d="M4808 3213 c7 -3 16 -2 19 1 4 3 -2 6 -13 5 -11 0 -14 -3 -6 -6z"/>
<path d="M5118 3213 c7 -3 16 -2 19 1 4 3 -2 6 -13 5 -11 0 -14 -3 -6 -6z"/>
<path d="M1289 3193 c-13 -16 -12 -17 4 -4 9 7 17 15 17 17 0 8 -8 3 -21 -13z"/>
<path d="M3590 3200 c0 -5 5 -10 11 -10 5 0 7 5 4 10 -3 6 -8 10 -11 10 -2 0
-4 -4 -4 -10z"/>
<path d="M5238 3203 c7 -3 16 -2 19 1 4 3 -2 6 -13 5 -11 0 -14 -3 -6 -6z"/>
<path d="M5300 3202 c0 -5 16 -16 35 -25 19 -9 35 -15 35 -13 0 2 -16 13 -35
25 -19 11 -35 17 -35 13z"/>
<path d="M3940 3190 c0 -5 6 -11 13 -13 6 -3 -1 -6 -16 -6 -16 -1 -26 3 -23 8
5 7 -53 8 -121 2 -10 -1 -10 -7 -1 -26 6 -13 15 -22 19 -19 4 2 25 -3 46 -13
21 -9 43 -19 48 -21 6 -3 0 5 -12 17 -12 11 -28 21 -35 21 -7 0 -20 5 -28 11
-11 7 8 8 62 3 60 -5 81 -3 98 9 16 11 18 17 9 23 -19 11 -59 14 -59 4z"/>
<path d="M4080 3171 c0 -23 6 -30 32 -37 17 -5 33 -15 36 -23 3 -8 0 -11 -7
-7 -6 4 -11 3 -11 -3 0 -5 9 -13 20 -16 11 -3 20 -10 20 -14 0 -7 66 -35 72
-30 4 3 78 -37 106 -57 21 -16 22 -16 16 2 -5 15 -3 14 10 -4 17 -22 84 -63
72 -43 -4 6 19 -3 51 -19 32 -16 84 -40 115 -54 45 -19 56 -29 51 -41 -6 -17
-26 -17 -67 0 -17 8 -17 6 2 -13 28 -28 28 -42 2 -42 -12 0 -31 -11 -43 -24
-13 -14 -35 -28 -50 -31 -15 -4 -30 -11 -33 -16 -3 -5 -24 9 -47 31 -97 90
-123 111 -176 137 -31 15 -60 34 -64 41 -4 6 -14 12 -21 12 -14 0 -62 51 -58
63 2 7 -13 11 -35 8 -7 -1 -20 10 -29 24 -13 20 -23 25 -40 21 -22 -6 -59 18
-66 42 -2 4 -7 5 -13 4 -38 -14 -75 -8 -90 14 -8 12 -24 25 -35 29 -11 4 -18
11 -15 16 8 11 -25 12 -44 0 -10 -6 -10 -10 -1 -16 20 -12 -9 -24 -46 -19 -26
3 -34 0 -39 -15 -3 -11 -14 -22 -23 -24 -12 -3 -11 -5 6 -6 12 0 22 3 22 9 0
14 60 3 80 -15 13 -12 25 -13 56 -6 l39 9 -40 1 c-22 1 -46 5 -54 10 -24 15 4
39 44 39 41 0 44 -5 13 -19 l-23 -10 23 5 c15 3 28 -4 41 -20 10 -13 22 -24
27 -24 4 0 17 -8 28 -17 19 -16 19 -16 7 -1 -22 29 -3 41 32 19 18 -10 43 -21
57 -23 14 -1 33 -13 43 -25 10 -12 55 -45 100 -72 46 -27 92 -60 102 -72 11
-11 39 -30 63 -41 24 -12 70 -47 103 -80 l60 -59 36 13 c19 7 43 23 53 35 9
12 35 29 58 38 22 9 48 28 57 41 8 13 31 30 49 38 19 8 44 28 57 45 12 17 38
36 56 42 20 6 39 22 48 40 9 16 21 29 27 29 6 0 8 3 5 7 -4 4 -22 -8 -40 -25
-18 -17 -43 -33 -57 -34 -15 -2 -30 -14 -40 -33 -11 -22 -22 -30 -41 -30 -18
1 -25 -4 -22 -13 7 -16 -47 -5 -62 14 -5 6 -28 17 -50 24 -22 7 -45 17 -51 21
-6 5 -33 21 -60 35 -106 57 -164 84 -182 84 -11 0 -25 7 -32 15 -14 17 -35 21
-24 4 4 -7 -3 -6 -17 2 -13 7 -30 12 -36 11 -7 -2 -13 5 -13 14 0 10 5 14 15
10 8 -3 15 -2 15 2 0 5 -16 14 -35 21 -19 7 -35 16 -35 21 0 4 -12 11 -26 14
-19 5 -24 11 -19 26 4 12 2 20 -4 20 -6 0 -11 -13 -11 -29z"/>
<path d="M5500 3191 c0 -5 5 -13 10 -16 6 -3 10 -2 10 4 0 5 -4 13 -10 16 -5
3 -10 2 -10 -4z"/>
<path d="M3614 3177 c-8 -10 -1 -13 29 -13 39 -1 40 -1 16 12 -29 16 -31 16
-45 1z"/>
<path d="M3558 3163 c6 -2 18 -2 25 0 6 3 1 5 -13 5 -14 0 -19 -2 -12 -5z"/>
<path d="M4185 3160 c-16 -7 -17 -9 -3 -9 9 -1 20 4 23 9 7 11 7 11 -20 0z"/>
<path d="M4248 3131 c26 -25 82 -51 111 -51 8 0 22 -7 32 -16 10 -9 35 -17 56
-18 41 -2 92 -32 93 -53 0 -7 8 -13 18 -12 10 0 12 3 5 6 -7 2 -13 10 -13 16
0 14 -80 67 -101 67 -8 0 -27 7 -44 16 -16 9 -65 29 -107 44 l-77 27 27 -26z"/>
<path d="M3987 3143 c-11 -10 26 -32 53 -32 17 1 19 3 8 6 -10 2 -18 11 -18
19 0 14 -31 20 -43 7z"/>
<path d="M3448 3133 c7 -3 16 -2 19 1 4 3 -2 6 -13 5 -11 0 -14 -3 -6 -6z"/>
<path d="M3487 3118 c2 -5 -8 -8 -24 -8 -20 0 -24 -3 -14 -9 16 -11 80 -3 98
12 7 5 19 7 28 4 8 -4 17 -2 20 3 3 6 -19 9 -54 7 -32 -1 -57 -5 -54 -9z"/>
<path d="M5360 3121 c0 -10 19 -25 25 -20 1 2 -3 10 -11 17 -8 7 -14 8 -14 3z"/>
<path d="M1204 3099 c-19 -22 -19 -22 4 -8 12 8 22 17 22 21 0 12 -6 9 -26
-13z"/>
<path d="M3387 3109 c7 -7 15 -10 18 -7 3 3 -2 9 -12 12 -14 6 -15 5 -6 -5z"/>
<path d="M4576 3105 c10 -8 24 -14 29 -14 6 0 1 6 -9 14 -11 8 -24 15 -30 15
-5 0 -1 -7 10 -15z"/>
<path d="M5406 3113 c-12 -12 -6 -23 14 -23 11 0 20 -4 20 -10 0 -13 27 -13
35 0 4 6 3 10 -2 9 -18 -3 -32 2 -46 16 -8 8 -17 11 -21 8z"/>
<path d="M3315 3100 c3 -5 8 -10 11 -10 2 0 4 5 4 10 0 6 -5 10 -11 10 -5 0
-7 -4 -4 -10z"/>
<path d="M3615 3100 c3 -5 8 -10 11 -10 2 0 4 5 4 10 0 6 -5 10 -11 10 -5 0
-7 -4 -4 -10z"/>
<path d="M4050 3094 c0 -14 20 -31 62 -54 38 -20 46 -36 21 -44 -14 -4 -14 -4
3 -3 11 1 48 -13 82 -31 34 -18 67 -32 74 -30 7 1 26 -10 42 -25 16 -15 36
-27 45 -27 9 0 2 9 -16 20 -18 11 -33 25 -33 32 0 7 -26 26 -57 42 -124 61
-148 75 -171 102 -23 29 -24 29 -17 4 l6 -25 -20 25 c-11 14 -21 20 -21 14z
m135 -94 c3 -6 -1 -7 -9 -4 -18 7 -21 14 -7 14 6 0 13 -4 16 -10z"/>
<path d="M1391 3083 c-1 -10 -32 -13 -121 -13 -104 0 -120 -2 -120 -16 0 -15
14 -16 120 -12 66 2 122 7 126 10 3 4 4 15 1 25 -3 10 -5 12 -6 6z"/>
<path d="M3360 3074 c0 -7 9 -16 20 -19 11 -3 20 -11 20 -16 0 -12 -6 -11 -28
2 -15 9 -24 8 -46 -6 -31 -20 -28 -33 3 -13 17 10 23 10 33 -1 11 -12 10 -13
-7 -7 -20 6 -20 6 0 -9 17 -14 18 -17 5 -26 -11 -7 -6 -8 15 -3 39 9 43 13 25
25 -11 8 -9 9 8 4 19 -5 112 28 112 40 0 11 -44 10 -66 -1 -22 -12 -29 -12
-36 -2 -12 20 -9 28 9 21 10 -4 14 -2 10 4 -10 16 -77 22 -77 7z"/>
<path d="M4620 3071 c8 -5 26 -12 40 -16 20 -6 23 -5 13 5 -7 7 -25 15 -40 16
-19 2 -23 0 -13 -5z"/>
<path d="M3556 3055 c4 -8 10 -15 15 -15 4 0 6 7 3 15 -4 8 -10 15 -15 15 -4
0 -6 -7 -3 -15z"/>
<path d="M4740 3061 c0 -5 7 -11 15 -15 8 -3 15 -1 15 3 0 5 -7 11 -15 15 -8
3 -15 1 -15 -3z"/>
<path d="M3715 3030 c18 -19 17 -20 -3 -20 -15 0 -20 -4 -15 -16 4 -12 0 -14
-21 -8 -17 4 -26 2 -26 -6 0 -10 -3 -10 -15 0 -12 10 -15 10 -15 -2 0 -8 -12
-21 -27 -28 -26 -12 -27 -13 -8 -21 18 -7 18 -8 -5 -8 -14 -1 -33 8 -43 19
-16 19 -16 20 1 20 17 0 98 68 90 75 -7 7 -48 -7 -48 -16 0 -5 -7 -9 -15 -9
-18 0 -20 -16 -2 -23 6 -3 -5 -5 -26 -4 -23 0 -41 6 -47 16 -8 14 -9 14 -10
-2 0 -11 16 -35 35 -54 19 -19 35 -39 35 -43 0 -12 39 -19 46 -9 3 6 14 7 25
4 14 -5 17 -2 13 9 -5 12 4 14 45 12 l51 -2 -27 22 -28 22 30 -6 c28 -5 29 -4
16 12 -12 15 -12 19 -1 26 7 4 19 6 27 3 7 -3 13 0 13 6 0 6 -4 11 -10 11 -5
0 -10 6 -10 14 0 8 -7 17 -16 20 -26 10 -28 7 -9 -14z"/>
<path d="M4810 3030 c0 -6 7 -10 15 -10 8 0 15 2 15 4 0 2 -7 6 -15 10 -8 3
-15 1 -15 -4z"/>
<path d="M5446 3029 c3 -5 -2 -9 -11 -9 -9 0 -13 -4 -10 -10 9 -15 42 -12 48
4 3 8 -2 16 -14 19 -10 3 -17 1 -13 -4z"/>
<path d="M3780 3026 c0 -9 61 -38 67 -32 3 3 -7 10 -22 16 -15 6 -32 13 -36
16 -5 3 -9 3 -9 0z"/>
<path d="M4900 3020 c0 -5 5 -10 10 -10 6 0 10 5 10 10 0 6 -4 10 -10 10 -5 0
-10 -4 -10 -10z"/>
<path d="M3163 2994 c-3 -9 2 -23 12 -32 17 -16 17 -16 10 3 -4 11 -8 26 -8
33 -1 17 -6 15 -14 -4z"/>
<path d="M3929 2996 c8 -9 35 -38 60 -65 61 -63 138 -116 115 -79 -4 7 -3 8 4
4 7 -4 12 -15 12 -25 0 -10 7 -24 15 -31 9 -8 15 -9 15 -2 0 6 -4 14 -10 17
-5 3 -10 11 -10 17 0 6 11 1 25 -12 14 -13 28 -20 32 -17 3 4 4 9 2 11 -14 12
-247 183 -259 190 -13 8 -13 7 -1 -8z"/>
<path d="M3772 2978 c3 -7 13 -15 23 -17 17 -3 17 -2 3 13 -20 19 -31 21 -26
4z"/>
<path d="M3311 2953 c-8 -15 -13 -15 -36 -5 -14 7 -24 8 -20 2 3 -5 -2 -10
-11 -10 -31 0 1 -23 35 -25 21 -2 31 2 31 11 0 14 16 4 56 -34 8 -7 23 -11 33
-7 11 3 22 1 26 -5 3 -5 0 -10 -9 -10 -8 0 -16 -5 -18 -11 -2 -5 -11 -11 -20
-13 -10 -1 -20 -5 -24 -8 -3 -4 -12 -4 -20 -1 -8 3 -14 0 -14 -7 0 -9 9 -10
33 -5 17 4 43 8 57 9 14 0 29 6 33 11 6 6 10 6 14 -2 2 -7 14 -13 26 -13 20 0
20 0 -2 24 -15 16 -19 26 -11 31 6 3 19 -4 30 -17 23 -27 27 -12 5 19 -14 20
-14 23 2 32 15 9 11 10 -18 8 -25 -1 -35 -6 -32 -15 9 -21 -98 -4 -121 20 -15
17 -16 22 -5 29 9 6 10 9 2 9 -7 0 -16 -8 -22 -17z"/>
<path d="M4678 2953 c7 -3 16 -2 19 1 4 3 -2 6 -13 5 -11 0 -14 -3 -6 -6z"/>
<path d="M4720 2950 c8 -5 24 -10 34 -10 26 0 18 6 -19 14 -22 5 -26 4 -15 -4z"/>
<path d="M3100 2916 c0 -8 5 -18 10 -21 6 -3 10 1 10 9 0 8 -4 18 -10 21 -5 3
-10 -1 -10 -9z"/>
<path d="M3388 2923 c7 -3 16 -2 19 1 4 3 -2 6 -13 5 -11 0 -14 -3 -6 -6z"/>
<path d="M3815 2885 c21 -25 41 -45 46 -45 5 0 9 -10 9 -23 0 -25 27 -64 81
-117 56 -54 78 -70 91 -67 7 1 21 -15 32 -35 17 -30 27 -38 49 -38 27 0 30 20
4 20 -7 0 -23 16 -37 35 -14 19 -31 35 -37 35 -18 0 -81 40 -64 40 11 0 10 5
-4 20 -10 11 -23 20 -29 20 -6 0 -4 -5 4 -10 12 -8 12 -10 1 -10 -16 0 -40 29
-41 49 0 8 -10 26 -22 39 -21 24 -22 25 -3 18 11 -4 4 6 -17 24 -20 17 -39 39
-43 49 -3 10 -17 23 -31 30 -24 10 -23 8 11 -34z"/>
<path d="M4598 2923 c7 -3 16 -2 19 1 4 3 -2 6 -13 5 -11 0 -14 -3 -6 -6z"/>
<path d="M3064 2888 l-19 -23 23 19 c12 11 22 21 22 23 0 8 -8 2 -26 -19z"/>
<path d="M3900 2902 c0 -12 19 -26 26 -19 2 2 -2 10 -11 17 -9 8 -15 8 -15 2z"/>
<path d="M3700 2881 c0 -6 60 -65 108 -105 12 -11 22 -14 22 -9 0 6 -22 28
-50 49 -27 21 -46 40 -41 44 5 3 -1 10 -15 17 -13 6 -24 8 -24 4z"/>
<path d="M4465 2870 c3 -5 11 -10 16 -10 6 0 7 5 4 10 -3 6 -11 10 -16 10 -6
0 -7 -4 -4 -10z"/>
<path d="M3195 2860 c3 -5 23 -10 43 -9 33 1 34 2 12 9 -36 12 -62 12 -55 0z"/>
<path d="M4452 2835 c12 -14 32 -25 46 -25 13 0 37 -9 53 -21 16 -11 29 -16
29 -10 0 14 -64 51 -89 51 -12 0 -24 7 -27 15 -4 8 -12 15 -20 15 -10 0 -7 -7
8 -25z"/>
<path d="M4000 2828 c11 -12 20 -25 20 -30 0 -14 -16 -9 -35 12 -10 11 -20 18
-23 15 -8 -8 29 -45 45 -45 8 0 40 -25 71 -56 58 -57 104 -84 156 -90 24 -3
27 -2 16 11 -7 8 -18 15 -24 15 -22 0 -94 39 -99 55 -4 8 -12 15 -19 15 -7 0
-35 27 -62 60 -28 33 -54 60 -58 60 -5 0 0 -10 12 -22z"/>
<path d="M4360 2831 c0 -5 7 -12 16 -15 14 -5 15 -4 4 9 -14 17 -20 19 -20 6z"/>
<path d="M3145 2820 c3 -5 11 -10 16 -10 6 0 7 5 4 10 -3 6 -11 10 -16 10 -6
0 -7 -4 -4 -10z"/>
<path d="M3005 2810 c4 -6 14 -10 23 -8 10 1 24 -2 32 -7 13 -8 13 -7 1 8 -15
18 -67 24 -56 7z"/>
<path d="M3279 2809 c-10 -6 -8 -9 8 -9 12 0 29 -3 39 -7 11 -4 15 -3 11 4
-10 15 -43 22 -58 12z"/>
<path d="M3578 2813 c7 -3 16 -2 19 1 4 3 -2 6 -13 5 -11 0 -14 -3 -6 -6z"/>
<path d="M3504 2785 c-4 -9 -11 -15 -18 -14 -6 1 -22 -3 -36 -8 -22 -10 -23
-12 -7 -18 9 -4 17 -17 17 -29 0 -25 17 -46 39 -46 12 0 12 3 -2 18 -8 9 -20
29 -26 43 -9 25 -8 27 19 31 16 2 35 1 43 -4 10 -5 17 -3 20 6 3 8 -5 18 -19
25 -20 9 -26 8 -30 -4z"/>
<path d="M3336 2771 c-11 -4 -15 -10 -9 -14 5 -3 19 0 29 8 20 15 11 18 -20 6z"/>
<path d="M3106 2755 c-17 -17 -46 -20 -46 -4 0 16 -23 5 -25 -12 -2 -11 7 -15
36 -16 21 0 36 3 34 7 -3 5 5 16 17 24 12 9 17 16 11 16 -6 0 -18 -7 -27 -15z"/>
<path d="M4430 2760 c0 -5 5 -10 10 -10 6 0 10 5 10 10 0 6 -4 10 -10 10 -5 0
-10 -4 -10 -10z"/>
<path d="M2936 2714 c-40 -53 -45 -78 -17 -94 13 -6 17 -17 14 -30 -3 -11 0
-27 7 -35 6 -8 9 -19 5 -26 -4 -6 -1 -15 6 -20 22 -15 -18 -40 -49 -32 -17 4
-23 2 -18 -6 4 -6 13 -11 21 -11 7 0 15 -5 17 -11 2 -6 19 -13 37 -15 19 -2
40 -9 47 -15 10 -9 14 -9 14 0 0 6 8 11 19 11 15 0 20 -10 25 -45 6 -37 10
-43 20 -32 22 21 28 64 10 71 -10 4 -13 13 -9 26 8 24 -15 50 -44 50 -14 0
-19 -5 -15 -15 7 -17 -4 -19 -26 -5 -13 8 -12 11 5 24 11 8 28 13 38 10 10 -3
24 -1 31 5 7 6 31 12 52 14 21 1 40 6 41 11 1 4 10 14 20 22 19 14 23 13 -39
18 -7 1 -12 -4 -11 -11 3 -13 -35 -29 -44 -19 -4 3 -13 1 -20 -6 -11 -9 -16
-9 -23 1 -6 11 -15 11 -40 2 -40 -13 -50 -14 -50 -2 0 6 27 15 60 22 33 6 57
15 55 20 -7 11 30 30 40 21 5 -4 5 -1 1 6 -4 7 -1 12 8 12 16 0 23 19 9 21
-45 6 -123 2 -145 -9 -31 -15 -78 -6 -78 14 0 19 20 17 36 -3 12 -16 13 -12 7
26 -4 29 -3 42 4 38 9 -6 27 32 19 40 -2 2 -19 -18 -40 -43z m64 -104 c0 -5 7
-10 15 -10 8 0 15 -4 15 -9 0 -14 -38 -1 -44 15 -3 8 -1 14 4 14 6 0 10 -4 10
-10z m-22 -22 c-7 -19 -38 -22 -38 -4 0 10 9 16 21 16 12 0 19 -5 17 -12z m2
-74 c0 -8 -4 -12 -10 -9 -5 3 -10 10 -10 16 0 5 5 9 10 9 6 0 10 -7 10 -16z
m5 -54 c-3 -5 -14 -10 -23 -9 -14 0 -13 2 3 9 27 11 27 11 20 0z"/>
<path d="M3737 2715 c20 -25 41 -45 46 -45 10 0 -3 19 -42 63 -41 45 -45 30
-4 -18z"/>
<path d="M3167 2734 c3 -7 9 -14 14 -14 14 0 10 17 -5 23 -10 4 -13 1 -9 -9z"/>
<path d="M3260 2740 c0 -5 -11 -12 -25 -16 -14 -3 -23 -10 -20 -14 8 -13 -51
-6 -69 9 -24 20 -32 5 -10 -20 l19 -22 -30 7 c-16 4 -39 9 -50 13 -16 4 -18 3
-8 -8 7 -7 23 -14 35 -15 26 -2 83 -18 112 -30 16 -6 18 -4 14 14 -7 24 2 28
20 10 8 -8 12 -8 12 -1 0 6 9 13 20 16 11 3 20 11 19 19 0 8 -2 9 -5 2 -3 -6
-16 -9 -30 -6 -24 4 -24 4 -4 22 22 19 26 30 10 30 -5 0 -10 -4 -10 -10z"/>
<path d="M3826 2724 c4 -16 9 -34 13 -40 11 -22 97 -109 124 -127 15 -10 27
-22 27 -28 0 -6 11 -24 25 -41 14 -16 25 -26 25 -22 0 4 -7 16 -17 26 -22 25
-1 23 28 -3 17 -14 20 -22 12 -25 -7 -3 -13 -12 -13 -19 0 -7 -16 -16 -36 -20
-28 -5 -48 -1 -84 17 l-48 24 24 -35 c13 -20 24 -41 24 -48 0 -20 -34 -15 -60
7 -13 11 -26 17 -29 14 -3 -3 5 -14 18 -25 17 -14 19 -19 7 -19 -10 0 -13 -6
-10 -15 4 -8 1 -15 -5 -15 -6 0 -11 10 -11 23 0 12 -10 33 -21 47 -11 14 -18
20 -15 14 3 -7 -1 -17 -8 -24 -12 -9 -17 -7 -25 9 -6 11 -11 26 -11 34 0 20
-29 30 -46 16 -16 -13 -44 4 -44 27 0 8 -5 14 -11 14 -5 0 -19 19 -30 43 -11
23 -24 49 -28 57 -5 8 -15 34 -22 58 -7 23 -16 42 -21 42 -22 0 24 -119 74
-192 10 -14 18 -31 18 -38 0 -18 53 -90 67 -90 12 0 12 17 0 38 -5 6 -5 17 -2
23 8 13 42 -15 50 -42 4 -11 14 -19 24 -19 26 0 47 -28 33 -42 -7 -7 -19 -6
-41 5 -37 19 -41 6 -6 -17 14 -9 23 -21 20 -26 -11 -17 -43 -11 -50 9 -3 11
-12 25 -21 32 -12 10 -13 9 -8 -7 4 -10 13 -28 20 -38 15 -22 3 -46 -23 -46
-8 0 -12 -4 -9 -8 6 -9 -17 -22 -73 -40 -39 -13 -61 -2 -61 30 0 10 -4 17 -10
13 -5 -3 -6 -13 -3 -22 4 -11 3 -14 -5 -9 -8 5 -12 -1 -12 -18 0 -13 6 -27 13
-29 7 -3 5 -6 -5 -6 -10 -1 -18 4 -18 9 0 11 -40 -8 -51 -24 -4 -4 -10 -3 -13
3 -4 6 -3 11 3 11 6 0 8 7 5 15 -4 8 -11 15 -16 15 -6 0 -16 7 -22 16 -10 13
-12 11 -14 -11 -1 -15 4 -28 13 -31 24 -10 18 -41 -9 -46 -14 -3 -29 -1 -34 4
-6 6 -12 -1 -16 -16 -3 -14 -11 -26 -16 -26 -13 0 -13 27 0 35 6 3 10 16 10
28 0 20 0 20 -15 1 -12 -16 -14 -16 -15 -3 0 9 -7 22 -15 29 -13 10 -15 9 -16
-11 -1 -13 -1 -32 0 -41 1 -9 -7 -23 -18 -30 -12 -7 -21 -17 -21 -22 0 -5 10
0 23 12 29 27 37 28 37 3 0 -29 15 -33 43 -11 14 11 36 20 50 20 13 0 37 10
52 21 15 12 47 26 72 30 24 5 57 18 73 29 15 11 35 20 43 20 17 0 86 51 133
99 16 17 37 31 46 31 8 0 23 9 33 20 10 11 28 20 41 20 12 0 35 11 51 23 15
13 40 27 54 30 15 4 34 18 43 32 9 14 25 25 35 25 11 0 33 11 49 25 17 14 44
28 61 31 17 4 41 18 54 33 12 15 33 27 45 28 13 1 35 10 49 20 33 23 42 28 73
42 23 10 22 10 -10 5 -19 -3 -42 -12 -50 -19 -25 -20 -50 -25 -72 -14 -23 12
-26 10 -31 -19 -5 -33 -15 -37 -39 -16 l-22 19 17 -27 c20 -31 22 -30 -55 -31
-30 0 -35 -3 -26 -14 18 -22 -1 -28 -25 -7 -12 11 -34 26 -49 34 -16 7 -28 17
-28 22 0 4 -5 8 -11 8 -19 0 9 -28 52 -52 21 -11 40 -27 43 -35 8 -21 -48 -16
-69 7 -10 11 -26 22 -36 25 -11 4 -17 10 -14 14 2 5 -7 21 -21 37 -15 16 -23
23 -20 17 4 -7 3 -13 -1 -13 -9 0 -71 78 -91 115 -6 11 -12 14 -12 7 0 -7 -5
-10 -11 -7 -6 4 -8 13 -5 20 3 8 -2 19 -10 26 -13 11 -14 9 -8 -17z m139 -313
c10 -17 -12 -21 -25 -6 -10 12 -10 15 3 15 9 0 18 -4 22 -9z"/>
<path d="M4476 2735 c4 -8 12 -15 20 -15 20 0 17 7 -6 20 -16 9 -18 8 -14 -5z"/>
<path d="M3640 2708 c0 -27 18 -67 62 -134 41 -65 53 -78 41 -47 -4 11 -3 14
5 9 7 -4 12 -14 12 -22 0 -8 5 -14 10 -14 13 0 -4 35 -31 65 -10 11 -29 33
-43 49 -14 16 -26 36 -26 45 -1 23 -29 71 -30 49z"/>
<path d="M4304 2693 c18 -35 69 -54 89 -33 9 10 9 11 0 6 -17 -9 -65 11 -86
37 -18 22 -18 21 -3 -10z"/>
<path d="M3364 2667 c-8 -8 -5 -16 9 -27 11 -9 21 -28 22 -44 2 -15 13 -47 24
-72 12 -24 21 -50 21 -58 0 -7 7 -19 15 -26 8 -7 15 -19 15 -27 0 -8 9 -31 19
-51 11 -20 24 -50 30 -65 11 -27 36 -45 48 -33 3 3 0 12 -7 21 -11 13 -10 14
6 8 10 -4 24 -14 31 -22 17 -24 4 38 -15 67 -18 28 -28 22 -12 -7 12 -24 -1
-28 -20 -6 -7 8 -9 15 -4 15 5 0 -4 12 -21 26 -23 19 -25 23 -7 14 40 -20 46
-5 8 20 -20 14 -39 35 -42 47 -3 12 -11 21 -17 20 -6 -1 -13 8 -15 21 -3 17 1
22 20 22 22 1 22 1 3 12 -33 19 -54 51 -61 90 -8 44 -33 72 -50 55z"/>
<path d="M4250 2671 c0 -13 48 -46 56 -38 3 2 -9 15 -25 27 -17 12 -31 17 -31
11z"/>
<path d="M3282 2635 c-3 -36 35 -172 56 -201 9 -13 22 -24 29 -24 6 0 14 -6
16 -12 3 -7 6 -1 6 13 1 15 -6 32 -14 39 -11 9 -15 9 -15 1 0 -7 -5 -9 -11 -5
-8 5 -8 8 0 14 9 5 7 11 -4 20 -9 7 -21 23 -26 34 l-10 21 18 -20 c10 -12 26
-27 36 -34 14 -11 17 -11 17 2 0 9 -8 18 -18 21 -10 4 -29 25 -42 49 l-23 42
26 -27 c27 -29 42 -34 51 -19 3 5 -2 8 -12 7 -11 -1 -25 16 -41 52 -28 58 -36
64 -39 27z"/>
<path d="M3780 2620 c30 -38 49 -53 34 -27 -21 36 -47 67 -56 67 -5 0 5 -18
22 -40z"/>
<path d="M3480 2642 c0 -5 12 -14 26 -20 14 -7 23 -8 19 -2 -9 15 -45 32 -45
22z"/>
<path d="M2843 2591 c-21 -25 -28 -38 -20 -43 18 -11 27 -9 22 5 -3 6 -1 19 5
27 7 12 15 13 40 3 36 -14 36 -13 7 19 l-23 24 -31 -35z"/>
<path d="M3625 2610 c3 -5 8 -10 11 -10 2 0 4 5 4 10 0 6 -5 10 -11 10 -5 0
-7 -4 -4 -10z"/>
<path d="M3840 2616 c0 -2 8 -10 18 -17 15 -13 16 -12 3 4 -13 16 -21 21 -21
13z"/>
<path d="M3510 2575 c0 -16 13 -53 29 -80 30 -53 61 -86 61 -66 0 6 -4 11 -8
11 -13 0 -29 42 -27 68 1 12 -4 22 -11 22 -8 0 -11 6 -9 13 3 6 -4 23 -15 37
l-20 25 0 -30z"/>
<path d="M3216 2549 c2 -46 7 -54 39 -54 15 -1 21 4 18 12 -3 7 -9 13 -14 13
-5 0 -9 7 -9 15 0 9 -8 25 -18 35 -18 19 -18 19 -16 -21z"/>
<path d="M3822 2558 c5 -15 28 -23 28 -10 0 5 -7 13 -16 16 -10 4 -14 1 -12
-6z"/>
<path d="M2860 2515 c-7 -9 -23 -13 -36 -11 -17 3 -24 0 -24 -10 0 -11 6 -13
20 -9 13 4 20 2 20 -6 0 -7 3 -9 8 -5 4 4 7 13 7 19 0 19 38 21 51 2 8 -11 14
-13 19 -5 16 25 -45 49 -65 25z"/>
<path d="M3840 2522 c0 -10 25 -31 58 -50 34 -19 26 2 -12 32 -37 28 -46 31
-46 18z"/>
<path d="M1010 2510 c0 -47 192 -456 230 -490 3 -3 21 -30 40 -60 45 -72 83
-120 94 -120 5 0 0 10 -11 23 -71 76 -243 396 -304 564 -30 82 -49 114 -49 83z"/>
<path d="M3140 2478 c0 -23 -3 -29 -9 -19 -5 7 -14 11 -19 7 -14 -9 -4 -36 13
-36 7 0 16 -11 19 -25 4 -14 12 -25 19 -25 8 0 7 -4 -3 -10 -13 -8 -13 -14 -2
-42 8 -18 14 -38 16 -45 3 -19 16 -28 16 -12 0 8 8 15 18 15 9 0 27 4 38 8 13
4 27 2 35 -6 17 -16 79 -23 79 -9 0 6 -7 8 -15 5 -8 -4 -15 -1 -15 5 0 6 -6
11 -14 11 -8 0 -21 9 -29 21 -9 13 -17 16 -22 10 -11 -18 -32 -12 -38 10 -3
12 -9 19 -14 16 -4 -2 -18 11 -30 29 -21 32 -21 34 -3 34 16 0 17 4 7 37 -11
34 -12 35 -18 12 -6 -22 -7 -21 -8 9 -1 17 -5 32 -11 32 -5 0 -10 -15 -10 -32z"/>
<path d="M3202 2480 c0 -14 2 -19 5 -12 2 6 2 18 0 25 -3 6 -5 1 -5 -13z"/>
<path d="M3700 2496 c0 -2 8 -10 18 -17 15 -13 16 -12 3 4 -13 16 -21 21 -21
13z"/>
<path d="M3777 2455 c10 -13 24 -25 32 -25 10 0 7 8 -9 25 -30 32 -46 32 -23
0z"/>
<path d="M2805 2460 c3 -5 10 -10 16 -10 5 0 9 5 9 10 0 6 -7 10 -16 10 -8 0
-12 -4 -9 -10z"/>
<path d="M2723 2453 c-18 -7 -16 -23 2 -23 8 0 15 7 15 15 0 8 -1 15 -2 14 -2
0 -9 -3 -15 -6z"/>
<path d="M3240 2431 c8 -15 8 -21 0 -21 -6 0 -4 -7 4 -16 9 -8 16 -22 16 -30
0 -8 5 -14 10 -14 7 0 7 6 0 19 -16 31 -12 51 10 51 22 0 27 15 8 26 -7 4 -8
3 -4 -4 9 -15 -9 -15 -35 -1 -19 10 -19 9 -9 -10z"/>
<path d="M2735 2422 c-16 -9 -32 -18 -34 -20 -3 -1 1 -8 8 -15 10 -9 15 -9 18
0 3 9 10 9 30 0 21 -10 27 -8 40 8 7 11 16 19 19 17 3 -2 9 0 12 4 7 7 -20 2
-50 -11 -11 -4 -18 -3 -18 4 0 6 7 11 16 11 8 0 12 5 9 10 -8 13 -15 12 -50
-8z"/>
<path d="M2835 2430 c3 -5 15 -10 27 -10 16 0 18 -3 9 -14 -9 -11 -8 -15 5
-20 10 -4 22 -2 28 4 16 16 26 12 26 -10 0 -26 20 -26 48 0 30 28 28 34 -8 26
-21 -4 -32 -1 -36 8 -3 8 -15 13 -27 13 -12 -1 -35 2 -50 6 -19 5 -27 4 -22
-3z"/>
<path d="M2667 2403 c-4 -3 -7 -13 -7 -20 0 -12 3 -12 15 1 8 8 15 17 15 20 0
8 -15 7 -23 -1z"/>
<path d="M2817 2377 c-4 -10 -13 -17 -22 -17 -8 0 -15 -7 -15 -15 0 -14 -4
-14 -31 1 -30 15 -31 15 -26 -1 5 -12 -2 -20 -29 -31 -32 -13 -38 -13 -60 0
-29 20 -41 20 -41 1 0 -8 4 -15 9 -15 4 0 8 -6 8 -12 -1 -7 -9 -3 -19 9 -14
16 -21 19 -30 10 -16 -16 -14 -30 4 -23 8 3 15 1 15 -4 0 -6 -4 -10 -10 -10
-5 0 -10 -4 -10 -10 0 -5 14 -10 31 -10 16 0 28 -4 24 -9 -3 -5 -1 -12 5 -16
5 -3 10 0 10 7 1 8 6 6 15 -6 14 -19 21 -11 16 17 -1 5 7 6 18 2 14 -4 20 0
25 19 8 33 39 50 65 37 10 -6 21 -8 24 -4 4 3 13 0 22 -7 8 -7 24 -10 35 -7
13 3 25 -2 34 -15 16 -22 32 -8 22 19 -4 10 1 21 14 30 22 15 16 28 -25 50
-16 9 -24 8 -37 -4 -16 -14 -18 -14 -26 7 -7 20 -10 21 -15 7z m33 -61 c0 -3
-4 -8 -10 -11 -5 -3 -10 -1 -10 4 0 6 5 11 10 11 6 0 10 -2 10 -4z"/>
<path d="M3372 2351 c0 -16 7 -37 16 -47 9 -11 18 -27 20 -38 4 -21 52 -77 52
-60 0 6 -9 23 -20 37 -11 14 -20 34 -20 45 0 11 -7 25 -15 32 -9 7 -14 22 -13
33 2 11 -2 22 -8 24 -6 2 -11 -9 -12 -26z"/>
<path d="M3630 2359 c0 -13 28 -18 33 -6 3 7 -3 13 -14 13 -11 0 -19 -3 -19
-7z"/>
<path d="M3123 2332 c-8 -5 -9 -13 -3 -22 11 -17 23 -8 18 14 -2 9 -8 12 -15
8z"/>
<path d="M3410 2330 c0 -5 10 -10 23 -10 18 0 19 2 7 10 -19 13 -30 13 -30 0z"/>
<path d="M3624 2303 c3 -20 12 -43 21 -52 15 -15 15 -14 5 13 -6 16 -8 37 -5
46 3 11 -1 20 -10 24 -12 4 -14 -1 -11 -31z"/>
<path d="M2933 2308 c2 -7 -2 -26 -10 -43 l-14 -30 23 26 c32 37 44 27 39 -32
-2 -38 -6 -49 -17 -45 -8 3 -14 -1 -14 -9 0 -7 8 -16 18 -18 13 -4 11 -5 -5
-6 -24 -1 -30 -15 -12 -27 6 -3 15 0 20 7 6 11 11 11 21 1 14 -14 48 -16 48
-2 0 6 -7 10 -15 10 -8 0 -15 5 -15 11 0 7 10 9 25 5 25 -6 25 -6 23 56 -1 55
-2 57 -5 17 -4 -41 -7 -46 -28 -46 -24 0 -26 5 -25 86 0 13 -5 30 -11 37 -14
18 -52 18 -46 2z"/>
<path d="M3066 2275 c-4 -17 -3 -31 4 -35 6 -4 15 -20 20 -36 6 -20 8 -23 9
-9 0 11 -5 40 -13 64 -13 44 -13 44 -20 16z"/>
<path d="M3446 2276 c3 -9 11 -16 16 -16 13 0 5 23 -10 28 -7 2 -10 -2 -6 -12z"/>
<path d="M2720 2271 c0 -5 9 -7 20 -4 11 3 20 7 20 9 0 2 -9 4 -20 4 -11 0
-20 -4 -20 -9z"/>
<path d="M3665 2270 c3 -5 8 -10 11 -10 2 0 4 5 4 10 0 6 -5 10 -11 10 -5 0
-7 -4 -4 -10z"/>
<path d="M2701 2231 c-11 -7 -11 -9 -1 -13 10 -3 11 -9 2 -24 -10 -17 -11 -18
-17 -2 -6 14 -11 15 -26 7 -13 -7 -19 -6 -19 1 0 6 -4 9 -9 5 -5 -3 -13 0 -17
6 -4 8 -9 7 -15 -2 -7 -12 -14 -11 -37 2 -28 16 -31 16 -61 -8 -33 -26 -38
-24 -20 10 10 17 4 15 -28 -11 -22 -17 -46 -39 -54 -48 -15 -18 -22 -47 -9
-39 5 3 11 1 15 -5 10 -17 38 -12 31 5 -7 18 35 38 60 28 9 -3 19 0 24 6 5 10
8 9 13 -1 2 -8 -6 -23 -19 -35 -17 -16 -24 -18 -24 -7 0 26 -18 15 -65 -41
-46 -54 -70 -70 -59 -40 11 29 -26 29 -56 0 -40 -38 -46 -28 -9 14 40 46 37
52 -6 11 -20 -19 -33 -40 -31 -46 6 -16 -72 -81 -107 -89 -17 -5 -24 -12 -20
-21 3 -9 -1 -14 -12 -14 -10 0 -14 5 -9 13 4 7 3 9 -2 4 -5 -5 -9 -14 -9 -20
0 -7 -11 -11 -25 -9 -13 1 -26 -1 -29 -5 -12 -16 -71 -44 -80 -38 -5 3 -12 1
-16 -4 -3 -6 -12 -8 -19 -5 -7 3 -15 -3 -18 -13 -4 -14 -16 -19 -54 -21 -56
-2 -114 16 -92 29 8 6 0 9 -22 9 -20 0 -46 7 -58 16 -13 9 -26 14 -28 11 -14
-14 23 -50 74 -75 49 -23 69 -27 142 -26 72 0 93 5 138 28 30 15 57 25 60 21
3 -3 -3 -8 -15 -11 -16 -4 -20 -13 -19 -36 1 -32 -28 -62 -42 -43 -4 6 -17 11
-29 12 -17 2 -23 -2 -23 -17 0 -14 5 -18 17 -13 11 4 14 3 9 -6 -5 -7 -14 -10
-21 -7 -8 3 -18 -1 -24 -8 -6 -8 -32 -19 -56 -26 -37 -10 -48 -10 -62 1 -9 8
-14 9 -10 3 9 -16 -22 -27 -39 -13 -7 6 -20 9 -29 7 -14 -3 -14 -5 -1 -23 24
-33 112 -25 221 19 50 20 99 39 109 41 11 3 22 8 25 12 10 14 79 63 88 63 4 0
-1 -8 -12 -17 -17 -14 -18 -15 -2 -9 25 8 57 -22 36 -34 -8 -6 -17 -4 -22 3
-5 7 -6 3 -2 -10 3 -13 2 -23 -3 -23 -12 0 -24 29 -16 41 3 5 -2 9 -11 9 -11
0 -14 -6 -9 -24 4 -15 1 -25 -9 -29 -11 -4 -13 0 -9 16 4 20 2 19 -27 -7 -17
-17 -31 -36 -31 -43 0 -8 -6 -13 -13 -11 -7 2 -14 0 -15 -4 -5 -19 -1 -28 14
-28 14 0 14 -3 4 -15 -7 -8 -21 -15 -31 -15 -11 0 -19 -4 -19 -9 0 -5 -7 -11
-14 -14 -10 -4 -13 -1 -9 9 3 7 1 14 -5 14 -6 0 -13 -6 -15 -12 -4 -10 -6 -10
-6 0 -1 10 -6 10 -21 2 -27 -14 -26 -33 1 -25 13 5 19 3 15 -3 -8 -13 -56 -22
-56 -11 0 16 -38 9 -44 -8 -10 -24 20 -44 53 -36 41 9 149 60 178 83 19 14 29
17 39 10 9 -9 4 -24 -26 -73 -27 -45 -34 -63 -24 -65 8 -2 14 -8 14 -13 0 -6
-9 -7 -20 -4 -23 7 -39 -20 -23 -36 16 -16 105 34 147 82 30 35 38 40 51 29
21 -17 55 -6 109 35 37 28 55 35 89 34 53 -2 85 11 131 52 23 20 54 35 82 40
32 6 65 24 110 60 35 28 68 48 73 45 16 -10 76 16 111 50 20 19 44 34 53 34
34 0 87 29 134 73 27 25 62 48 80 51 36 8 83 51 83 75 -1 14 -3 13 -15 -3 -8
-10 -26 -24 -40 -32 -24 -12 -26 -11 -35 11 -11 28 -23 34 -18 8 2 -9 -9 -30
-25 -46 -21 -23 -30 -27 -41 -18 -8 7 -20 10 -27 9 -13 -3 -15 3 -18 42 -2 29
-21 25 -21 -4 0 -14 -4 -28 -10 -31 -5 -3 -10 -17 -10 -31 0 -21 -4 -24 -39
-24 -31 0 -43 6 -59 27 l-20 28 5 -29 c5 -22 3 -27 -7 -21 -9 6 -11 4 -5 -6
16 -28 38 -48 46 -43 5 3 9 -2 9 -10 0 -20 -17 -29 -24 -14 -3 7 -4 5 -3 -6 3
-25 -32 -45 -63 -36 -21 7 -22 8 -5 9 21 1 26 27 11 62 -4 8 0 32 9 52 20 49
20 98 0 91 -27 -11 -65 5 -65 26 0 27 -16 25 -24 -2 -8 -31 -7 -48 2 -47 30 5
82 -3 82 -13 0 -6 -3 -8 -6 -5 -4 3 -15 2 -25 -3 -12 -7 -20 -7 -24 0 -3 5
-15 10 -25 10 -30 0 -31 12 -6 86 34 101 50 164 42 171 -3 3 -6 -3 -6 -13 0
-11 -4 -24 -8 -29 -4 -6 -16 -36 -27 -67 -10 -32 -23 -58 -28 -58 -11 0 -2
100 10 109 5 3 10 17 11 31 4 21 2 22 -12 11 -9 -7 -16 -23 -16 -34 0 -16 -3
-18 -12 -9 -15 15 -31 16 -22 0 4 -7 3 -8 -4 -4 -18 11 -14 34 6 38 18 3 18 4
3 20 -10 11 -22 14 -30 9z m-96 -53 c16 3 25 0 25 -8 0 -8 9 -10 25 -6 21 5
25 3 25 -14 0 -12 4 -18 10 -15 15 9 1 -42 -23 -85 -23 -42 -43 -64 -33 -36 5
16 4 17 -9 6 -10 -9 -12 -17 -5 -30 10 -19 -10 -47 -23 -33 -9 9 -9 53 1 53 9
0 32 50 24 51 -4 0 -14 2 -23 4 -9 1 -23 -2 -30 -7 -11 -8 -10 -9 4 -4 12 4
17 0 17 -15 0 -17 -5 -20 -25 -17 -14 3 -25 1 -25 -3 0 -5 -4 -9 -10 -9 -5 0
-10 9 -10 20 0 24 -15 27 -24 4 -16 -41 1 -101 22 -79 4 4 1 10 -5 12 -7 3
-13 9 -13 15 0 6 7 7 16 4 9 -4 23 -1 30 5 11 9 14 6 14 -15 0 -15 -4 -24 -10
-21 -5 3 -16 -10 -24 -30 -8 -19 -22 -35 -30 -35 -8 0 -27 -16 -43 -34 -27
-34 -62 -43 -70 -19 -4 11 26 27 35 18 3 -3 0 -5 -7 -5 -7 0 -9 -5 -6 -10 7
-11 45 30 45 49 0 6 9 11 20 11 10 0 24 9 30 21 11 19 10 20 -9 9 -13 -7 -28
-7 -38 -2 -10 5 -24 7 -32 4 -8 -3 -11 0 -7 7 11 18 -6 13 -29 -9 -13 -12 -29
-18 -38 -14 -22 8 -21 20 3 44 30 30 10 24 -22 -7 -22 -21 -28 -23 -28 -10 0
9 -5 17 -11 17 -7 0 -9 -9 -5 -24 5 -19 -1 -29 -32 -52 -20 -15 -39 -31 -42
-34 -6 -8 -46 -30 -55 -30 -12 0 0 55 15 71 24 26 57 33 68 14 8 -15 10 -15
22 0 10 12 10 21 2 39 -10 22 -8 25 19 36 16 7 34 20 39 29 9 15 11 14 20 -1
17 -29 42 -20 84 27 22 25 43 45 48 45 13 0 9 -28 -4 -33 -8 -3 -8 -6 -2 -6 6
-1 24 11 40 26 24 22 38 26 90 27 56 1 60 -1 56 -19 -6 -27 14 -7 23 23 5 19
3 22 -22 23 -15 1 -32 2 -38 4 -5 1 -15 3 -21 3 -6 1 -11 8 -11 15 0 6 -3 19
-5 27 -3 8 -3 12 -1 9 2 -3 15 -4 28 -1z m-170 -35 c-15 -13 -30 -21 -34 -17
-3 4 0 9 7 11 6 3 9 10 6 15 -4 7 -2 8 5 4 6 -4 14 0 17 8 3 9 11 13 17 9 6
-4 -1 -16 -18 -30z m275 -60 c-13 -26 -29 -66 -35 -88 -10 -30 -15 -36 -20
-23 -4 10 2 33 13 55 12 21 28 55 38 76 9 21 19 35 22 33 2 -3 -6 -27 -18 -53z
m40 -3 c0 -5 -4 -10 -10 -10 -5 0 -10 5 -10 10 0 6 5 10 10 10 6 0 10 -4 10
-10z m4 -35 c16 -12 17 -18 6 -44 -9 -24 -18 -29 -41 -29 -32 1 -34 9 -18 57
12 34 24 38 53 16z m-106 -124 c0 -22 -3 -28 -14 -24 -17 6 -17 9 -4 34 14 26
17 24 18 -10z m158 8 c3 -6 15 -9 25 -6 30 8 44 -18 25 -48 -20 -31 -62 -34
-71 -5 -3 11 -13 27 -21 35 -9 8 -12 19 -9 25 8 13 42 13 51 -1z m258 2 c3 -5
-2 -15 -12 -22 -15 -12 -16 -12 -5 2 7 9 10 19 6 22 -3 4 -4 7 0 7 3 0 8 -4
11 -9z m-369 -11 c4 -6 11 -8 16 -5 5 4 9 1 9 -4 0 -6 -9 -11 -20 -11 -11 0
-20 -4 -20 -10 0 -5 -4 -10 -10 -10 -5 0 -10 11 -10 25 0 25 23 35 35 15z
m-258 -43 c-6 -19 -22 -6 -25 20 -2 27 -2 27 13 8 8 -10 14 -23 12 -28z m139
19 c3 -8 11 -13 18 -10 7 3 19 -2 26 -11 15 -18 61 -20 78 -3 9 9 12 8 12 -5
0 -9 -4 -17 -9 -17 -5 0 -11 -9 -14 -20 -8 -32 -41 -25 -63 15 -6 11 -20 20
-31 20 -19 1 -53 26 -53 39 0 13 31 5 36 -8z m494 -15 c0 -5 -7 -11 -15 -15
-15 -5 -20 5 -8 17 9 10 23 9 23 -2z m-699 -24 c-10 -9 -11 -8 -5 6 3 10 9 15
12 12 3 -3 0 -11 -7 -18z m146 10 c11 4 14 2 9 -5 -4 -7 -1 -15 8 -18 9 -3 16
-12 16 -19 0 -7 9 -15 20 -18 14 -4 18 -10 13 -22 -6 -17 -7 -17 -20 1 -14 19
-15 19 -29 0 -12 -17 -14 -17 -14 -3 0 9 -6 20 -12 24 -7 4 -19 19 -26 32 -12
20 -12 25 0 32 7 5 14 4 16 -1 2 -5 10 -6 19 -3z m503 -2 c0 -8 -9 -15 -20
-15 -25 0 -26 17 -2 23 9 3 18 5 20 6 1 0 2 -6 2 -14z m-284 -30 c-3 -8 -10
-15 -15 -15 -7 0 -6 10 1 26 12 26 25 16 14 -11z m-456 16 c0 -5 -7 -12 -16
-15 -24 -9 -28 -7 -14 9 14 17 30 20 30 6z m14 -42 c-21 -23 -30 -24 -38 -3
-4 12 -2 15 9 10 9 -3 19 3 27 17 7 14 13 18 16 9 2 -7 -4 -22 -14 -33z m-254
11 c-14 -11 -36 -20 -49 -20 -31 0 -25 6 24 23 53 19 54 19 25 -3z m437 -7 c3
-7 -4 -9 -16 -6 -12 3 -18 9 -15 15 7 11 26 6 31 -9z m-95 -28 c-6 -32 -25
-32 -47 1 -16 25 -16 25 4 15 26 -15 31 -14 31 5 0 8 4 13 9 10 4 -3 6 -17 3
-31z m-132 -33 c0 -20 -28 -26 -45 -9 -18 18 -19 29 -4 44 13 13 49 -13 49
-35z m505 38 c3 -5 1 -10 -4 -10 -6 0 -11 5 -11 10 0 6 2 10 4 10 3 0 8 -4 11
-10z m85 0 c0 -13 -28 -25 -38 -16 -3 4 0 11 8 16 20 13 30 12 30 0z m-201 -6
c32 -7 43 -24 16 -24 -8 0 -23 -9 -32 -20 -22 -25 -53 -26 -53 -1 0 14 6 17
28 14 25 -4 25 -3 10 10 -32 26 -24 32 31 21z m221 -14 c0 -5 -5 -10 -11 -10
-5 0 -7 5 -4 10 3 6 8 10 11 10 2 0 4 -4 4 -10z m-530 -10 c0 -5 -6 -10 -14
-10 -8 0 -18 5 -21 10 -3 6 3 10 14 10 12 0 21 -4 21 -10z m99 -6 c6 4 7 -36
2 -53 -4 -16 -27 36 -23 53 3 11 7 15 10 8 2 -7 7 -10 11 -8z m69 -13 c5 -33
-13 -48 -33 -27 -10 10 -14 24 -10 37 9 27 39 20 43 -10z m210 -3 c2 -9 -10
-30 -26 -48 -29 -31 -29 -31 -35 -9 -7 25 3 43 10 21 4 -10 9 -9 24 4 19 18
27 50 9 39 -5 -3 -10 -1 -10 5 0 17 24 6 28 -12z m77 12 c-3 -5 -12 -10 -18
-10 -7 0 -6 4 3 10 19 12 23 12 15 0z m-700 -10 c-3 -5 -10 -10 -16 -10 -5 0
-9 5 -9 10 0 6 7 10 16 10 8 0 12 -4 9 -10z m470 -20 c3 -5 0 -10 -9 -10 -8 0
-16 -6 -19 -12 -2 -7 -8 -10 -12 -6 -11 11 2 38 19 38 8 0 18 -4 21 -10z
m-235 -11 c0 -5 5 -7 10 -4 23 14 8 -14 -16 -30 -22 -14 -30 -15 -49 -5 -13 7
-28 9 -34 6 -7 -4 -9 -1 -5 8 4 10 15 13 40 9 29 -5 33 -3 28 11 -4 11 -1 16
10 16 9 0 16 -5 16 -11z m290 -40 c0 -11 -44 -29 -71 -29 -13 0 -19 7 -19 21
0 16 5 20 19 16 10 -2 25 -1 31 3 15 9 40 2 40 -11z m-165 -6 c17 -10 18 -14
6 -25 -11 -10 -14 -10 -18 0 -3 6 -9 10 -14 7 -5 -3 -18 -1 -29 5 -16 9 -25 8
-36 -1 -22 -18 -18 -42 6 -34 11 3 27 2 36 -3 13 -7 9 -11 -20 -16 -20 -4 -42
-4 -48 0 -8 5 -9 2 -5 -9 5 -12 1 -17 -13 -17 -13 0 -18 -5 -14 -15 4 -8 10
-15 14 -15 5 0 15 7 24 15 8 8 20 15 27 15 9 0 8 -4 -1 -15 -7 -8 -18 -15 -25
-15 -8 0 -15 -6 -18 -12 -3 -9 -11 -4 -25 12 l-20 25 24 24 c13 13 24 28 24
34 0 6 9 20 20 32 22 24 71 27 105 8z m-302 -30 c-3 -7 -15 -13 -28 -13 -13 0
-25 6 -28 13 -3 9 5 13 28 13 23 0 31 -4 28 -13z m141 4 c17 -12 16 -14 -8
-25 -24 -11 -26 -10 -26 13 0 28 8 31 34 12z m-48 -13 c-3 -9 -6 -27 -6 -40 0
-14 -6 -24 -14 -24 -11 0 -13 7 -6 30 5 18 5 30 -1 30 -5 0 -9 5 -9 10 0 6 9
10 21 10 15 0 19 -4 15 -16z m252 -8 c3 -15 1 -16 -17 -6 -12 6 -19 16 -15 21
9 15 28 5 32 -15z m32 -7 c0 -6 -4 -7 -10 -4 -5 3 -10 11 -10 16 0 6 5 7 10 4
6 -3 10 -11 10 -16z m-330 -34 c0 -14 -4 -25 -8 -25 -7 0 -8 31 -3 48 4 11 11
-3 11 -23z m280 5 c0 -5 -7 -10 -16 -10 -8 0 -12 5 -9 10 3 6 10 10 16 10 5 0
9 -4 9 -10z m-265 -59 c-3 -6 -11 -11 -17 -11 -6 0 -6 6 2 15 14 17 26 13 15
-4z m62 -3 c-3 -8 -6 -5 -6 6 -1 11 2 17 5 13 3 -3 4 -12 1 -19z m-102 2 c3
-5 1 -10 -4 -10 -6 0 -11 5 -11 10 0 6 2 10 4 10 3 0 8 -4 11 -10z m-47 -101
c-18 -12 -23 8 -6 28 12 15 13 15 16 -2 2 -10 -2 -21 -10 -26z"/>
<path d="M2546 2073 c-6 -14 -5 -15 5 -6 7 7 10 15 7 18 -3 3 -9 -2 -12 -12z"/>
<path d="M2872 2232 c-10 -7 -10 -14 3 -38 l15 -29 0 38 c0 41 0 40 -18 29z"/>
<path d="M2857 2193 c-11 -10 -7 -35 8 -68 l15 -30 -6 40 c-4 22 -7 46 -7 53
0 14 -1 14 -10 5z"/>
<path d="M3135 2190 c-3 -5 -1 -10 4 -10 6 0 11 5 11 10 0 6 -2 10 -4 10 -3 0
-8 -4 -11 -10z"/>
<path d="M3200 2180 c28 -22 40 -25 40 -9 0 6 7 8 16 5 10 -4 14 -1 12 6 -3 7
-24 14 -49 15 l-44 3 25 -20z"/>
<path d="M5596 2134 c-16 -65 -14 -93 4 -64 6 8 10 22 11 30 1 20 6 43 13 68
4 11 3 23 -2 26 -5 3 -17 -24 -26 -60z"/>
<path d="M5662 2129 c11 -33 22 -58 25 -55 7 6 -29 116 -38 116 -4 0 2 -27 13
-61z"/>
<path d="M2904 2165 c-17 -13 -17 -14 -2 -15 9 0 20 5 23 11 11 17 0 20 -21 4z"/>
<path d="M3066 2133 c8 -58 11 -63 31 -63 11 0 14 7 11 23 -4 20 -1 23 17 19
15 -2 22 1 22 12 0 11 -7 14 -22 10 -15 -4 -25 2 -35 20 -21 40 -32 31 -24
-21z"/>
<path d="M3190 2160 c0 -5 5 -10 11 -10 5 0 7 5 4 10 -3 6 -8 10 -11 10 -2 0
-4 -4 -4 -10z"/>
<path d="M4818 1999 c3 -151 2 -161 -15 -157 -16 3 -18 17 -21 133 -1 72 -4
135 -6 141 -2 6 -18 11 -36 12 -35 1 -37 -21 -2 -26 21 -3 22 -9 24 -110 0
-59 2 -111 3 -117 2 -5 3 -20 4 -33 1 -20 6 -23 34 -20 31 3 32 5 32 46 -3
209 -6 292 -12 292 -5 0 -7 -72 -5 -161z"/>
<path d="M4541 1998 c0 -98 -5 -158 -11 -158 -5 0 -12 -1 -15 -2 -3 -2 -7 57
-10 130 -2 73 -7 138 -10 143 -8 12 -65 12 -65 -1 0 -5 11 -10 25 -10 24 0 25
-3 25 -53 0 -30 3 -95 6 -145 l7 -92 29 0 c16 0 31 6 33 13 3 6 1 84 -4 172
l-8 160 -2 -157z"/>
<path d="M2912 2114 c-2 -16 -11 -23 -34 -28 l-33 -7 30 -13 c37 -17 48 -8 42
35 -2 19 -5 24 -5 13z"/>
<path d="M3877 1978 c5 -156 5 -158 -16 -158 -20 0 -21 5 -22 110 -1 61 -3
115 -4 120 -1 6 -3 18 -4 29 -1 22 -61 37 -61 14 0 -7 11 -13 25 -13 l25 0 0
-140 0 -140 24 -6 c14 -3 30 -3 35 1 13 7 13 214 1 290 -5 30 -6 -13 -3 -107z"/>
<path d="M4152 2104 c-12 -8 -22 -25 -21 -37 l0 -22 9 22 c5 12 17 24 28 27
21 7 51 -1 53 -15 1 -5 2 -13 3 -18 3 -26 16 -20 16 7 0 48 -45 67 -88 36z"/>
<path d="M2840 2100 c0 -5 5 -10 11 -10 5 0 7 5 4 10 -3 6 -8 10 -11 10 -2 0
-4 -4 -4 -10z"/>
<path d="M3020 2101 c0 -5 5 -13 10 -16 6 -3 10 -2 10 4 0 5 -4 13 -10 16 -5
3 -10 2 -10 -4z"/>
<path d="M4082 2098 c-19 -19 -14 -55 13 -85 27 -31 34 -16 9 22 -10 16 -14
34 -10 50 7 28 5 30 -12 13z"/>
<path d="M915 2088 c-20 -60 -34 -122 -29 -130 3 -5 1 -15 -5 -22 -12 -14 -82
-12 -133 4 -45 14 -34 -14 22 -57 27 -21 52 -45 54 -53 3 -8 -1 -40 -9 -70 -8
-30 -15 -61 -15 -67 0 -23 34 -13 89 27 l54 39 58 -40 c60 -40 99 -50 99 -24
0 8 -6 15 -13 15 -8 0 -26 22 -41 49 -14 27 -32 52 -39 54 -9 4 -8 6 2 6 10 1
11 4 2 15 -10 11 -9 14 1 12 7 -1 18 -4 23 -8 11 -7 140 90 132 99 -3 2 -15
-1 -27 -7 -12 -7 -31 -9 -42 -7 -15 4 -18 2 -13 -11 5 -13 3 -13 -14 2 -11 10
-24 15 -30 12 -6 -4 -21 -4 -35 0 -29 7 -66 84 -66 138 0 35 -16 50 -25 24z"/>
<path d="M2942 2083 c3 -19 48 -32 48 -14 0 6 -7 11 -15 11 -8 0 -15 5 -15 10
0 6 -5 10 -11 10 -6 0 -9 -8 -7 -17z"/>
<path d="M4280 2068 c0 -15 -7 -34 -16 -43 -19 -19 -11 -33 10 -16 19 16 29
62 17 74 -8 8 -11 3 -11 -15z"/>
<path d="M3196 2064 c-9 -23 -8 -24 13 -24 11 0 23 5 27 12 5 7 0 9 -14 6 -15
-4 -19 -2 -15 8 3 8 3 14 0 14 -3 0 -8 -7 -11 -16z"/>
<path d="M6171 2054 c0 -11 3 -14 6 -6 3 7 2 16 -1 19 -3 4 -6 -2 -5 -13z"/>
<path d="M5783 2013 c-54 -40 -68 -65 -53 -93 5 -9 10 -27 12 -41 2 -13 8 -31
13 -39 11 -17 -36 10 -71 41 -29 27 -42 24 -102 -21 -29 -22 -54 -40 -57 -40
-2 0 7 30 21 66 14 37 23 68 22 69 -18 18 -116 77 -134 81 -39 10 -21 -16 41
-59 30 -21 55 -45 55 -52 0 -8 -9 -40 -21 -71 -18 -48 -19 -58 -7 -70 12 -12
23 -8 77 31 69 48 66 48 138 -1 30 -20 73 -32 73 -21 0 2 -9 30 -20 62 -11 32
-20 65 -20 74 0 9 25 35 55 58 88 68 67 91 -22 26z"/>
<path d="M2997 2009 c-4 -14 0 -19 14 -19 22 0 26 25 5 33 -8 3 -16 -2 -19
-14z"/>
<path d="M3086 1975 c4 -8 8 -15 10 -15 2 0 4 7 4 15 0 8 -4 15 -10 15 -5 0
-7 -7 -4 -15z"/>
<path d="M2946 1971 c-5 -7 -3 -18 3 -24 14 -14 20 -6 11 17 -5 15 -9 16 -14
7z"/>
<path d="M4138 1963 c-19 -22 -29 -61 -18 -68 5 -3 10 5 12 17 2 12 15 29 30
37 36 21 78 2 78 -34 0 -14 5 -25 10 -25 17 0 11 56 -8 73 -25 22 -85 22 -104
0z"/>
<path d="M3006 1955 c-3 -8 -1 -15 4 -15 6 0 10 7 10 15 0 8 -2 15 -4 15 -2 0
-6 -7 -10 -15z"/>
<path d="M4065 1939 c-12 -36 4 -86 36 -113 41 -35 85 -41 137 -20 50 19 73
56 71 111 -1 26 -3 30 -6 13 -11 -68 -56 -110 -118 -110 -37 0 -77 18 -69 32
4 7 3 8 -4 4 -17 -10 -35 33 -29 70 6 37 -8 47 -18 13z"/>
<path d="M6072 1845 c-6 -14 -8 -25 -3 -25 8 0 23 41 17 47 -1 2 -8 -8 -14
-22z"/>
<path d="M1380 1825 c0 -4 17 -27 38 -49 22 -23 44 -51 51 -62 9 -14 14 -15
18 -6 4 10 8 9 18 -5 9 -11 17 -14 22 -8 5 6 6 9 4 7 -2 -1 -13 5 -23 15 -10
9 -18 12 -18 8 0 -5 -11 2 -25 15 -29 27 -32 42 -7 33 9 -3 14 -3 10 1 -3 4
-13 9 -22 10 -9 1 -27 13 -41 26 -14 13 -25 20 -25 15z"/>
<path d="M6042 1819 c4 -10 -3 -27 -18 -42 -28 -30 -30 -37 -9 -37 8 0 15 5
15 11 0 7 9 20 21 30 20 18 21 19 3 36 -15 15 -17 15 -12 2z"/>
<path d="M2002 1738 c3 -7 13 -15 24 -17 16 -3 17 -1 5 13 -16 19 -34 21 -29
4z"/>
<path d="M1554 1708 c-4 -7 -4 -10 1 -6 12 11 35 -11 29 -27 -3 -7 -1 -16 5
-20 7 -3 8 0 5 9 -3 9 -1 16 5 16 6 0 11 5 11 12 0 6 -3 8 -7 5 -3 -4 -14 0
-24 9 -14 12 -18 13 -25 2z"/>
<path d="M5970 1711 c0 -5 13 -8 29 -7 16 0 27 4 25 8 -7 11 -54 10 -54 -1z"/>
<path d="M1490 1691 c0 -14 239 -229 335 -302 75 -57 220 -146 312 -192 115
-59 316 -138 301 -120 -11 14 -11 16 2 8 8 -4 23 -15 33 -24 10 -8 37 -21 60
-27 159 -43 249 -64 292 -68 l50 -6 -50 15 c-27 8 -60 15 -72 15 -13 0 -23 4
-23 9 0 5 -14 9 -30 9 -17 -1 -38 6 -48 15 -22 20 -36 22 -27 5 4 -7 -1 -4 -9
6 -9 11 -16 14 -16 8 0 -7 -4 -12 -10 -12 -5 0 -7 7 -4 15 4 11 2 13 -9 9 -8
-3 -18 0 -22 5 -3 6 -11 9 -16 6 -5 -4 -9 -1 -9 5 0 6 -5 8 -12 4 -8 -5 -9 -2
-5 9 3 10 2 17 -3 17 -10 0 -14 -15 -11 -34 1 -5 -12 3 -29 18 -18 14 -37 26
-45 26 -7 0 -18 7 -25 15 -7 9 -20 13 -28 10 -9 -3 -19 -1 -22 6 -4 6 -26 12
-48 13 -21 0 -38 6 -36 11 6 15 -41 34 -59 23 -10 -5 -18 -4 -23 3 -4 7 -3 9
4 5 6 -3 13 -2 17 4 3 5 16 10 28 10 15 0 18 3 10 11 -8 8 -16 7 -31 -2 -17
-11 -25 -11 -45 0 -14 7 -30 10 -36 6 -7 -3 -10 -1 -9 6 2 7 -7 18 -20 24 -36
19 -39 28 -7 21 l30 -6 -25 14 c-22 13 -26 12 -38 -5 -14 -20 -38 -16 -26 3 5
7 1 9 -9 5 -9 -3 -23 1 -32 9 -8 9 -15 12 -15 8 0 -4 -10 2 -22 13 -13 11 -33
24 -45 27 -11 4 -27 14 -35 23 -7 9 -8 14 -2 10 7 -4 14 0 18 8 8 22 -13 30
-28 10 -12 -16 -14 -15 -34 10 -12 15 -22 24 -22 20 0 -4 -7 -2 -15 5 -8 7
-12 17 -8 23 4 6 0 8 -10 4 -19 -7 -44 18 -27 28 9 5 13 0 12 -15 0 -3 11 -6
24 -6 13 -1 24 2 24 7 0 5 -3 8 -7 8 -21 -3 -32 3 -38 21 -4 11 -11 18 -16 14
-5 -3 -7 -9 -4 -14 10 -17 -13 -19 -26 -3 -10 12 -10 14 -1 9 7 -4 12 -1 12 8
0 9 6 16 13 16 6 1 -1 8 -18 17 -41 22 -80 53 -66 53 6 0 11 7 11 15 0 18 -11
19 -29 3 -11 -10 -12 -10 -7 -1 5 9 2 11 -9 6 -10 -3 -21 0 -26 8 -6 9 -9 10
-9 2 0 -6 5 -15 10 -18 6 -3 10 -11 10 -16 0 -5 -16 5 -35 22 -29 27 -33 35
-22 47 6 9 7 13 1 9 -6 -3 -22 0 -37 8 -15 8 -27 10 -27 6z m147 -98 c-4 -3 3
-18 15 -32 l23 -26 -27 24 c-30 26 -36 41 -16 41 6 0 8 -3 5 -7z"/>
<path d="M1894 1679 c-9 -15 -2 -18 20 -9 17 6 18 7 3 13 -9 3 -19 2 -23 -4z"/>
<path d="M5978 1683 c7 -3 16 -2 19 1 4 3 -2 6 -13 5 -11 0 -14 -3 -6 -6z"/>
<path d="M1610 1656 c0 -9 5 -16 10 -16 6 0 10 4 10 9 0 6 -4 13 -10 16 -5 3
-10 -1 -10 -9z"/>
<path d="M1846 1655 c4 -8 10 -12 15 -9 14 8 10 24 -6 24 -9 0 -12 -6 -9 -15z"/>
<path d="M5935 1653 c2 -7 -2 -13 -9 -13 -9 0 -12 -7 -9 -20 3 -12 0 -20 -6
-20 -7 0 -9 -5 -5 -11 4 -8 9 -7 16 2 7 10 8 8 5 -8 -3 -13 -1 -23 3 -23 16 0
21 19 11 39 -9 16 -8 18 8 14 10 -3 22 0 25 6 4 6 0 11 -9 11 -13 0 -14 2 -3
14 7 8 16 12 20 10 4 -2 9 -1 12 4 3 5 -11 8 -30 8 -23 -1 -33 -5 -29 -13z"/>
<path d="M450 1609 c7 -11 14 -19 16 -16 7 7 -7 37 -17 37 -6 0 -5 -9 1 -21z"/>
<path d="M1680 1605 c-8 -9 -8 -15 -2 -15 12 0 26 19 19 26 -2 2 -10 -2 -17
-11z"/>
<path d="M1991 1586 c-9 -10 -8 -15 4 -20 8 -3 15 -4 15 -2 0 3 3 11 6 20 8
20 -9 21 -25 2z"/>
<path d="M5880 1591 c0 -6 4 -13 10 -16 6 -3 7 1 4 9 -7 18 -14 21 -14 7z"/>
<path d="M5960 1586 c0 -2 6 -9 13 -15 10 -8 14 -7 14 4 0 8 -6 15 -14 15 -7
0 -13 -2 -13 -4z"/>
<path d="M5729 1543 c-13 -16 -12 -17 4 -4 16 13 21 21 13 21 -2 0 -10 -8 -17
-17z"/>
<path d="M5873 1538 c2 -7 -3 -18 -12 -25 -14 -11 -14 -12 -1 -13 8 0 20 4 26
8 16 10 13 42 -3 42 -8 0 -13 -6 -10 -12z"/>
<path d="M5831 1514 c0 -11 3 -14 6 -6 3 7 2 16 -1 19 -3 4 -6 -2 -5 -13z"/>
<path d="M515 1500 c14 -26 88 -130 92 -130 5 0 -3 13 -46 75 -37 54 -60 81
-46 55z"/>
<path d="M5917 1503 c-4 -3 -7 -11 -7 -17 0 -6 5 -5 12 2 6 6 9 14 7 17 -3 3
-9 2 -12 -2z"/>
<path d="M5674 1468 l-19 -23 23 19 c21 18 27 26 19 26 -2 0 -12 -10 -23 -22z"/>
<path d="M5810 1484 c0 -2 10 -8 21 -15 17 -8 20 -8 17 2 -4 11 -38 23 -38 13z"/>
<path d="M1814 1459 c-7 -10 -2 -21 18 -41 24 -23 28 -24 28 -8 0 10 -8 28
-18 40 -14 18 -20 19 -28 9z"/>
<path d="M5845 1440 c-3 -5 -1 -10 4 -10 6 0 11 5 11 10 0 6 -2 10 -4 10 -3 0
-8 -4 -11 -10z"/>
<path d="M5634 1418 l-19 -23 23 19 c21 18 27 26 19 26 -2 0 -12 -10 -23 -22z"/>
<path d="M5719 1413 c-13 -16 -12 -17 4 -4 16 13 21 21 13 21 -2 0 -10 -8 -17
-17z"/>
<path d="M2260 1343 c0 -48 5 -84 12 -91 20 -20 47 -14 54 13 4 16 13 25 25
25 11 0 22 7 26 15 8 21 3 23 -35 18 -26 -4 -31 -9 -27 -24 4 -12 2 -19 -7
-19 -7 0 -14 11 -14 25 -1 14 3 25 10 25 8 0 8 2 -1 8 -6 4 -13 23 -15 41 -2
19 -9 36 -15 39 -10 3 -13 -17 -13 -75z"/>
<path d="M2420 1341 c0 -82 13 -110 45 -97 19 7 22 151 3 162 -8 5 -10 -9 -5
-54 3 -34 2 -64 -3 -67 -4 -2 -11 27 -14 65 -4 39 -11 70 -17 70 -5 0 -9 -35
-9 -79z"/>
<path d="M5876 1408 c3 -5 10 -6 15 -3 13 9 11 12 -6 12 -8 0 -12 -4 -9 -9z"/>
<path d="M2317 1403 c-4 -3 -7 -15 -7 -26 0 -14 3 -17 13 -9 6 6 25 12 41 14
46 5 45 28 -1 28 -22 0 -43 -3 -46 -7z"/>
<path d="M5840 1400 c0 -5 5 -10 10 -10 6 0 10 5 10 10 0 6 -4 10 -10 10 -5 0
-10 -4 -10 -10z"/>
<path d="M1904 1389 c-3 -6 -1 -16 6 -22 10 -9 11 -9 5 3 -4 8 9 -3 29 -25 21
-22 35 -32 32 -22 -3 11 -2 15 4 12 6 -3 10 -1 10 4 0 6 -9 11 -21 11 -11 0
-18 3 -16 8 3 4 -6 15 -18 25 -16 11 -26 13 -31 6z"/>
<path d="M5860 1380 c-9 -6 -10 -10 -3 -10 6 0 15 5 18 10 8 12 4 12 -15 0z"/>
<path d="M5589 1363 c-13 -16 -12 -17 4 -4 9 7 17 15 17 17 0 8 -8 3 -21 -13z"/>
<path d="M5656 1335 c-13 -19 -13 -23 -2 -19 8 3 16 14 19 25 7 25 3 24 -17
-6z"/>
<path d="M1996 1331 c-4 -6 0 -14 8 -17 9 -3 14 -10 11 -14 -3 -4 3 -7 13 -6
10 0 16 -5 14 -14 -2 -8 0 -11 4 -7 16 16 11 36 -9 43 -12 4 -25 11 -28 16 -4
6 -9 6 -13 -1z"/>
<path d="M3260 1320 c0 -6 14 -13 30 -16 25 -6 30 -11 30 -36 0 -27 1 -28 16
-14 20 21 64 21 64 1 0 -12 -4 -13 -18 -6 -14 7 -20 4 -29 -15 -6 -13 -7 -24
-2 -24 5 0 9 5 9 10 0 17 21 11 40 -12 10 -13 22 -20 26 -16 4 4 2 13 -3 20
-6 7 -11 26 -11 42 1 33 -18 47 -51 39 -20 -5 -22 -3 -16 16 6 19 3 21 -39 21
-25 0 -46 -5 -46 -10z"/>
<path d="M5790 1322 c0 -5 7 -9 15 -9 8 0 12 4 9 9 -3 4 -9 8 -15 8 -5 0 -9
-4 -9 -8z"/>
<path d="M3158 1287 c-72 -58 -60 -169 26 -245 69 -60 153 -64 228 -10 66 46
98 156 64 217 -12 22 -13 20 -9 -26 10 -102 -56 -173 -161 -173 -72 0 -108 19
-140 71 -29 50 -28 108 5 152 26 36 22 41 -13 14z"/>
<path d="M3213 1293 c-20 -8 -15 -23 8 -23 15 0 20 -5 17 -22 -2 -17 5 -27 32
-40 43 -22 43 -22 30 2 -6 11 -17 20 -24 20 -23 0 -29 33 -9 49 16 12 16 13 1
8 -10 -3 -20 -2 -23 3 -7 11 -13 11 -32 3z"/>
<path d="M2150 1261 c0 -6 4 -13 10 -16 6 -3 7 1 4 9 -7 18 -14 21 -14 7z"/>
<path d="M5756 1245 c-9 -14 -12 -25 -7 -25 12 0 35 39 28 46 -2 3 -12 -7 -21
-21z"/>
<path d="M3270 1250 c19 -13 30 -13 30 0 0 6 -10 10 -22 10 -19 0 -20 -2 -8
-10z"/>
<path d="M3310 1220 c0 -9 6 -22 13 -29 10 -11 10 -13 0 -7 -7 4 -13 2 -13 -5
0 -6 -8 -9 -19 -6 -15 4 -18 0 -17 -23 2 -25 -2 -29 -38 -35 l-41 -8 32 -10
c36 -11 68 5 59 30 -7 18 37 37 101 45 9 1 10 5 2 14 -6 7 -17 10 -26 7 -10
-4 -23 3 -34 18 -13 17 -19 20 -19 9z"/>
<path d="M3175 1190 c-7 -11 22 -26 32 -16 3 3 13 0 22 -6 9 -7 13 -8 9 -4 -4
5 -3 15 3 23 9 10 4 13 -24 13 -20 0 -39 -5 -42 -10z"/>
<path d="M4641 1179 c-19 -51 -32 -110 -26 -119 3 -6 16 -10 28 -10 17 0 19 2
8 9 -12 8 -11 17 3 60 11 36 14 57 7 69 -8 15 -11 14 -20 -9z"/>
<path d="M5710 1185 c-7 -9 -11 -17 -9 -20 3 -2 10 5 17 15 14 24 10 26 -8 5z"/>
<path d="M2360 1183 c5 -2 8 -9 4 -14 -3 -5 0 -9 6 -9 15 0 7 23 -8 26 -7 1
-8 0 -2 -3z"/>
<path d="M4684 1173 c16 -56 17 -70 2 -82 -17 -14 -13 -31 7 -31 9 0 9 2 1 8
-9 5 -8 11 2 20 12 11 14 9 14 -8 0 -11 5 -20 11 -20 6 0 9 6 7 13 -3 6 -13
36 -22 65 -10 28 -20 52 -22 52 -3 0 -3 -8 0 -17z"/>
<path d="M3356 1144 c-17 -12 -17 -13 7 -19 14 -4 28 -14 30 -23 3 -15 5 -15
12 1 5 12 1 24 -12 36 -16 16 -22 16 -37 5z"/>
<path d="M5629 1118 c-6 -46 4 -49 25 -7 12 24 12 28 2 19 -11 -9 -15 -7 -18
7 -2 10 -6 1 -9 -19z"/>
<path d="M1926 1131 c-17 -28 -44 -122 -39 -139 3 -13 -1 -21 -14 -24 -29 -8
-124 7 -132 21 -5 8 -13 5 -27 -11 -10 -13 -15 -20 -10 -16 4 4 21 -9 38 -28
17 -19 34 -34 39 -34 6 0 19 -9 31 -20 20 -18 20 -21 5 -81 -8 -34 -13 -68
-10 -75 7 -18 33 -17 57 1 16 12 22 12 35 2 14 -10 14 -10 3 5 -12 15 -10 19
17 32 28 15 33 15 65 -1 19 -9 32 -21 29 -26 -4 -6 -1 -7 7 -2 7 4 15 3 19 -3
3 -6 18 -13 34 -17 30 -8 45 11 32 43 -5 11 -9 13 -12 5 -6 -16 -27 3 -35 32
-4 11 -11 35 -16 53 -15 45 -5 40 19 -10 11 -24 17 -35 14 -25 -17 60 -16 61
45 104 33 24 60 50 60 58 0 13 -4 14 -21 4 -46 -24 -209 -3 -183 24 4 4 2 13
-5 20 -6 8 -14 34 -17 58 -6 47 -18 67 -28 50z"/>
<path d="M3312 1120 c0 -14 2 -19 5 -12 2 6 2 18 0 25 -3 6 -5 1 -5 -13z"/>
<path d="M3340 1100 c0 -5 7 -10 16 -10 8 0 12 5 9 10 -3 6 -10 10 -16 10 -5
0 -9 -4 -9 -10z"/>
<path d="M5580 1093 c0 -5 5 -15 10 -23 8 -12 10 -11 10 8 0 12 -4 22 -10 22
-5 0 -10 -3 -10 -7z"/>
<path d="M2575 1076 c32 -14 41 -13 30 3 -3 6 -18 11 -33 11 l-27 -1 30 -13z"/>
<path d="M2646 1045 c4 -8 10 -15 15 -15 4 0 6 7 3 15 -4 8 -10 15 -15 15 -4
0 -6 -7 -3 -15z"/>
<path d="M4673 1030 c1 -8 -4 -14 -12 -12 -8 2 -11 -3 -8 -13 4 -8 2 -15 -3
-15 -6 0 -10 4 -10 8 0 4 -23 6 -51 5 -36 -2 -48 0 -43 8 4 7 3 9 -4 5 -6 -3
-29 1 -52 10 -75 30 -63 -3 21 -58 27 -17 49 -37 49 -43 0 -7 -9 -38 -20 -70
-18 -51 -18 -61 -6 -73 12 -13 23 -9 76 29 l62 43 31 -18 c80 -48 106 -60 112
-54 4 3 -3 37 -14 76 -12 38 -21 72 -21 75 0 3 27 27 60 52 90 69 77 93 -16
31 -54 -35 -130 -63 -89 -33 19 14 18 15 -8 10 -32 -6 -33 -10 -9 -36 17 -19
16 -20 -6 -8 -22 12 -23 11 -17 -8 5 -15 2 -21 -9 -21 -9 0 -16 -5 -16 -11 0
-5 -5 -7 -10 -4 -6 4 -4 12 5 21 20 20 19 23 -7 34 -22 8 -21 9 7 10 17 1 24
4 18 7 -7 2 -13 10 -13 16 0 5 3 7 7 4 4 -5 33 35 33 47 0 1 -9 2 -20 2 -12 0
-19 -6 -17 -16z m-53 -51 c0 -11 -21 -11 -39 0 -9 6 -5 9 13 9 14 0 26 -4 26
-9z m9 -58 c9 -6 6 -8 -13 -8 -14 0 -23 3 -20 8 7 11 15 11 33 0z m118 -30
c-3 -12 1 -22 11 -26 8 -3 12 -8 9 -12 -12 -11 -35 18 -30 37 3 11 8 20 10 20
3 0 3 -9 0 -19z"/>
<path d="M5553 1028 c-9 -10 -22 -17 -27 -15 -6 3 -12 -7 -12 -20 -2 -24 -2
-24 19 -6 64 55 68 60 53 60 -9 0 -24 -9 -33 -19z"/>
<path d="M935 990 c10 -11 20 -20 23 -20 3 0 -3 9 -13 20 -10 11 -20 20 -23
20 -3 0 3 -9 13 -20z"/>
<path d="M2926 969 c2 -4 -4 -9 -13 -12 -10 -2 3 -4 28 -3 51 1 56 11 10 18
-17 2 -28 1 -25 -3z"/>
<path d="M3032 946 c13 -14 28 -12 28 5 0 5 -9 9 -20 9 -17 0 -19 -2 -8 -14z"/>
<path d="M3495 950 l-40 -7 35 -1 c19 0 53 3 75 7 l40 9 -35 -1 c-19 0 -53 -3
-75 -7z"/>
<path d="M3070 938 c0 -5 29 -8 64 -8 35 0 78 -3 95 -6 21 -4 31 -3 31 5 0 7
-4 9 -10 6 -5 -3 -15 -3 -22 1 -15 10 -158 11 -158 2z"/>
<path d="M3280 929 c-11 -7 12 -8 75 -3 50 3 92 8 94 10 10 9 -156 3 -169 -7z"/>
<path d="M3297 803 c-4 -7 -17 -38 -28 -69 -17 -52 -18 -59 -3 -75 14 -16 14
-18 -4 -23 -25 -8 -119 2 -144 15 -19 10 -38 5 -38 -11 0 -5 29 -30 64 -55
l64 -48 -14 -46 c-38 -122 -26 -135 67 -73 l61 41 54 -34 c56 -36 94 -45 94
-22 0 6 -10 40 -22 75 -19 54 -20 65 -8 72 38 23 109 86 110 98 0 15 5 15 -50
-1 -25 -7 -60 -12 -77 -11 -18 1 -52 2 -75 3 -31 1 -39 4 -28 10 8 6 18 7 22
5 4 -3 14 1 21 8 12 11 11 22 -5 70 -21 62 -34 77 -23 28 5 -23 3 -30 -9 -30
-10 0 -16 12 -18 43 -2 25 -6 37 -11 30z m59 -127 c-2 -6 -8 0 -14 14 -5 14
-7 29 -4 34 7 12 24 -33 18 -48z m77 -193 c23 -62 16 -65 -10 -3 -12 28 -18
50 -14 50 4 0 14 -21 24 -47z"/>
<path d="M2075 670 c3 -5 8 -10 11 -10 2 0 4 5 4 10 0 6 -5 10 -11 10 -5 0 -7
-4 -4 -10z"/>
</g>
</svg>
